<?xml version="1.0" standalone="no"?>
<!DOCTYPE svg PUBLIC "-//W3C//DTD SVG 20010904//EN"
 "http://www.w3.org/TR/2001/REC-SVG-20010904/DTD/svg10.dtd">
<svg version="1.0" xmlns="http://www.w3.org/2000/svg"
 width="1600.000000pt" height="1600.000000pt" viewBox="0 0 1600.000000 1600.000000"
 preserveAspectRatio="xMidYMid meet">

<g transform="translate(0.000000,1600.000000) scale(0.100000,-0.100000)"
fill="#000000" stroke="none">
<path d="M3463 13137 c-114 -122 -166 -260 -166 -437 1 -157 37 -289 128 -470
36 -72 102 -180 110 -180 2 0 -5 21 -16 47 -65 151 -93 361 -65 486 18 82 85
199 117 205 9 2 48 -27 87 -63 54 -50 81 -85 108 -140 60 -122 58 -227 -7
-360 l-29 -60 33 37 c74 82 114 213 104 342 -10 130 -86 320 -185 460 -49 68
-140 183 -151 190 -5 3 -35 -22 -68 -57z"/>
<path d="M3947 12456 c-4 -32 -5 -61 -3 -63 7 -7 19 82 14 103 -2 11 -7 -8
-11 -40z"/>
<path d="M4053 12418 c-45 -67 -49 -75 -24 -54 26 24 65 85 58 92 -3 3 -18
-14 -34 -38z"/>
<path d="M3114 12416 c-17 -8 -60 -37 -94 -64 -96 -77 -187 -100 -266 -67 -42
17 -40 12 35 -74 77 -87 201 -185 291 -229 93 -45 205 -55 289 -27 28 9 53 20
55 23 2 4 -26 7 -63 7 -59 0 -74 4 -125 35 -53 32 -125 101 -146 140 -13 25
138 191 192 212 l43 16 -40 18 c-54 23 -132 28 -171 10z"/>
<path d="M3906 12260 c-32 -55 -184 -206 -253 -252 -123 -82 -247 -136 -388
-168 -104 -24 -51 -26 88 -4 267 42 462 154 537 308 26 53 50 146 38 146 -2 0
-12 -14 -22 -30z"/>
<path d="M7205 12234 c-270 -41 -420 -95 -800 -288 -241 -123 -310 -146 -505
-167 -254 -28 -675 19 -1055 117 -61 15 27 -20 160 -65 448 -151 793 -184
1120 -106 137 32 216 63 381 150 279 146 465 199 754 212 375 16 810 -91 1162
-286 58 -32 116 -62 129 -66 58 -19 211 -99 294 -154 195 -130 326 -285 450
-536 79 -160 131 -307 169 -476 l6 -26 -80 -5 c-207 -12 -422 -196 -635 -543
-152 -249 -234 -348 -352 -429 -220 -150 -427 -104 -532 118 -49 103 -68 180
-83 334 -28 309 66 1018 227 1696 14 60 24 110 22 112 -2 2 -33 -88 -70 -199
-299 -907 -415 -1647 -320 -2035 23 -96 74 -203 122 -255 152 -164 443 -163
678 2 145 103 290 277 483 581 237 374 339 500 441 548 83 40 181 25 285 -44
146 -95 430 -429 689 -809 184 -270 302 -395 494 -522 191 -126 439 -216 689
-248 91 -12 56 33 -48 60 -284 73 -520 205 -715 400 -119 118 -178 197 -299
400 -93 157 -220 335 -340 482 -98 118 -384 407 -458 463 -44 33 -48 41 -83
150 -43 132 -115 290 -182 400 -154 250 -393 473 -637 594 -702 350 -956 433
-1341 441 -104 2 -203 1 -220 -1z"/>
<path d="M4207 12018 c-107 -63 -206 -437 -194 -728 12 -287 102 -505 287
-691 144 -146 313 -241 730 -409 306 -123 368 -157 680 -375 117 -82 245 -110
290 -65 11 11 20 26 20 34 0 90 -165 225 -455 371 -193 97 -286 136 -605 251
-367 133 -499 194 -608 278 -127 97 -213 230 -249 383 -20 85 -25 337 -10 444
l8 56 87 -5 c196 -11 374 80 523 268 32 41 59 77 59 81 0 10 -140 66 -237 95
-60 18 -120 28 -188 31 -91 4 -104 2 -138 -19z"/>
<path d="M11115 11919 c-203 -15 -432 -81 -560 -161 -68 -43 -167 -123 -182
-148 -9 -13 11 -4 58 26 132 86 282 143 416 160 l58 7 -45 -49 c-60 -65 -110
-135 -155 -216 -40 -74 -70 -103 -115 -113 -44 -10 -46 -24 -2 -18 52 7 87 27
119 70 63 82 142 158 226 213 92 62 262 151 360 190 32 12 55 26 50 30 -13 12
-130 16 -228 9z"/>
<path d="M10078 11754 c-32 -10 -64 -32 -105 -73 -59 -58 -68 -62 -163 -77
-57 -8 -129 -36 -180 -70 -56 -37 -50 -47 13 -19 82 37 169 49 276 36 157 -19
230 -59 265 -143 36 -86 81 -117 236 -161 47 -13 94 -27 105 -32 17 -6 16 -5
-3 10 -12 9 -60 30 -105 47 -120 43 -159 69 -189 125 -34 62 -81 107 -139 131
-52 22 -89 63 -89 98 0 33 46 82 88 94 59 16 147 12 204 -10 28 -11 53 -18 55
-17 7 7 -83 50 -130 63 -63 17 -79 17 -139 -2z"/>
<path d="M11070 11743 c-8 -3 -37 -19 -64 -36 -37 -24 -45 -32 -32 -37 13 -4
1 -21 -56 -76 -40 -38 -95 -89 -123 -113 -28 -25 -37 -36 -20 -26 17 11 66 41
110 68 109 66 242 129 347 163 49 15 84 32 80 36 -17 17 -207 34 -242 21z"/>
<path d="M10045 11670 c-4 -7 -3 -16 3 -22 14 -14 45 -2 40 15 -6 16 -34 21
-43 7z"/>
<path d="M10638 11665 c-59 -16 -183 -73 -175 -81 3 -3 18 1 34 9 33 18 151
50 163 45 23 -8 -41 -96 -110 -151 l-35 -28 40 19 c61 30 128 107 155 176 11
31 3 32 -72 11z"/>
<path d="M6294 11626 c20 -47 20 -43 -8 -50 -42 -10 -103 -87 -116 -148 -11
-46 -18 -58 -44 -72 l-31 -16 55 6 c102 11 257 -13 460 -71 19 -6 7 11 -51 71
-76 79 -199 218 -252 284 l-28 35 15 -39z"/>
<path d="M4500 11370 c0 -5 5 -10 10 -10 6 0 10 5 10 10 0 6 -4 10 -10 10 -5
0 -10 -4 -10 -10z"/>
<path d="M10704 11224 c-1 -110 -5 -150 -20 -193 -10 -30 -24 -56 -31 -58 -24
-8 -37 72 -26 165 9 74 4 184 -9 198 -2 1 -4 -30 -4 -69 -1 -44 -11 -108 -28
-167 -31 -114 -33 -188 -5 -250 22 -50 65 -110 79 -110 12 0 47 63 60 107 32
113 31 309 -3 462 -12 52 -12 48 -13 -85z"/>
<path d="M4584 11339 c-10 -17 13 -36 27 -22 12 12 4 33 -11 33 -5 0 -12 -5
-16 -11z"/>
<path d="M4480 11315 c0 -9 5 -15 11 -13 6 2 11 8 11 13 0 5 -5 11 -11 13 -6
2 -11 -4 -11 -13z"/>
<path d="M4427 11294 c-8 -8 1 -24 14 -24 5 0 9 7 9 15 0 15 -12 20 -23 9z"/>
<path d="M4677 11293 c-3 -5 -2 -15 3 -22 10 -17 43 -6 38 12 -6 15 -34 22
-41 10z"/>
<path d="M4550 11245 c0 -8 7 -15 15 -15 8 0 15 7 15 15 0 8 -7 15 -15 15 -8
0 -15 -7 -15 -15z"/>
<path d="M4774 11245 c-4 -9 -2 -21 4 -27 15 -15 44 -1 40 19 -4 23 -36 29
-44 8z"/>
<path d="M4477 11214 c-3 -3 -3 -12 0 -19 6 -17 33 -8 33 11 0 14 -21 19 -33
8z"/>
<path d="M4880 11185 c0 -22 4 -26 23 -23 14 2 22 10 22 23 0 13 -8 21 -22 23
-19 3 -23 -1 -23 -23z"/>
<path d="M4623 11184 c-8 -20 17 -36 34 -22 10 8 10 14 2 24 -15 18 -28 18
-36 -2z"/>
<path d="M4532 11113 c2 -10 10 -18 18 -18 8 0 16 8 18 18 2 12 -3 17 -18 17
-15 0 -20 -5 -18 -17z"/>
<path d="M4704 11109 c-8 -14 21 -43 35 -35 6 4 11 16 11 27 0 21 -34 27 -46
8z"/>
<path d="M4797 11043 c-13 -12 -7 -44 8 -49 24 -10 47 14 34 37 -10 19 -30 25
-42 12z"/>
<path d="M4590 11021 c0 -24 25 -34 40 -16 15 18 5 35 -21 35 -12 0 -19 -7
-19 -19z"/>
<path d="M4663 10943 c-18 -7 -16 -42 2 -49 24 -10 47 14 34 37 -10 19 -15 21
-36 12z"/>
<path d="M11465 10761 c-53 -14 -111 -49 -144 -86 -18 -21 -30 -39 -28 -41 2
-2 28 0 57 6 77 15 235 12 307 -5 164 -39 298 -135 437 -316 17 -21 32 -36 34
-34 3 2 -6 32 -18 65 -84 224 -316 403 -539 415 -42 2 -89 1 -106 -4z"/>
<path d="M11237 10556 c-72 -67 -90 -181 -43 -274 36 -71 50 -76 42 -16 -9 66
7 94 62 110 77 22 97 57 70 121 -18 42 -59 83 -83 83 -12 0 -34 -11 -48 -24z"/>
<path d="M11499 10563 c-13 -15 -12 -15 9 -4 35 19 76 -10 70 -49 -2 -16 -1
-27 4 -24 4 3 8 18 8 33 0 51 -61 81 -91 44z"/>
<path d="M11494 10525 c-9 -23 3 -45 24 -45 11 0 25 7 32 15 16 19 -3 45 -32
45 -10 0 -21 -7 -24 -15z"/>
<path d="M4470 10366 c27 -35 197 -164 322 -247 68 -44 267 -166 443 -271 931
-555 1051 -633 1090 -709 9 -16 40 -113 70 -217 30 -103 68 -228 84 -279 l29
-92 -112 -4 -111 -3 118 -2 c164 -3 154 -22 -12 -22 l-128 0 -18 63 c-24 84
-84 222 -135 308 -51 86 -157 200 -226 245 -62 40 -154 68 -194 59 -90 -20
-252 -282 -346 -560 l-39 -115 -110 -2 -110 -2 108 -3 c97 -3 108 -6 103 -21
-6 -24 -35 -200 -38 -237 -2 -21 -10 -31 -28 -37 l-25 -8 25 3 c25 3 25 3 28
-86 4 -156 41 -271 125 -391 24 -33 54 -78 67 -99 l23 -39 -94 -94 -94 -94
-91 0 c-53 0 -94 4 -97 10 -3 6 -4 5 -3 -2 2 -9 30 -14 96 -16 l94 -3 96 96
97 97 18 -37 17 -37 -58 -59 c-53 -53 -56 -59 -34 -59 15 0 40 16 67 42 23 23
44 40 46 37 2 -2 22 -43 44 -90 53 -112 107 -280 137 -426 l24 -118 1 142 c1
173 -22 418 -50 533 -12 47 -22 90 -23 95 -1 6 -8 27 -15 48 -12 36 -11 40 10
65 20 23 21 24 3 9 -24 -20 -18 -30 -70 118 -10 28 -21 55 -26 62 -5 6 -9 20
-8 30 4 30 0 39 -9 24 -8 -12 -11 -8 -17 15 -4 16 -12 32 -18 36 -6 4 -8 9 -5
12 7 7 33 -17 89 -84 25 -30 62 -73 83 -98 20 -24 37 -46 37 -49 0 -4 -8 -16
-17 -27 l-18 -21 23 20 c14 12 26 15 30 9 4 -5 21 -30 38 -55 18 -24 46 -68
62 -96 l31 -52 -42 -4 -42 -4 47 -1 46 -2 32 -77 c18 -43 34 -80 36 -82 2 -2
14 20 27 48 13 28 27 48 32 44 4 -5 6 -1 3 7 -6 19 27 98 55 130 18 20 18 22
3 10 -17 -13 -19 -13 -14 0 31 85 74 220 93 293 12 49 26 84 30 78 8 -14 23
-172 26 -279 2 -64 -1 -76 -22 -100 l-24 -27 27 23 26 24 -1 -60 c-1 -33 1
-58 6 -55 4 2 7 -2 7 -9 0 -7 13 -40 29 -74 32 -68 85 -116 146 -132 l40 -11
-32 29 c-68 62 -68 56 -69 460 -1 201 -6 392 -12 425 -8 51 -7 63 7 80 15 18
15 19 0 7 -15 -11 -18 -7 -29 37 -6 28 -9 54 -6 60 3 5 2 11 -3 13 -4 1 -11
20 -15 41 l-7 38 127 -3 127 -3 28 -84 c16 -46 26 -88 22 -94 -3 -6 -1 -7 5
-3 7 4 12 2 12 -4 0 -28 192 -460 205 -460 10 0 105 50 105 55 0 3 -20 42 -44
88 -60 110 -186 412 -201 481 -1 6 -7 25 -14 41 -19 46 -84 251 -141 450 -29
99 -58 191 -65 205 -40 77 -202 176 -865 527 -657 349 -873 478 -1060 632 -30
25 -48 37 -40 27z m1707 -2318 c-3 -8 -6 -5 -6 6 -1 11 2 17 5 13 3 -3 4 -12
1 -19z m-647 -545 c0 -14 -84 -93 -99 -93 -9 0 5 21 34 50 46 47 65 59 65 43z"/>
<path d="M11466 10295 c-72 -26 -127 -93 -152 -190 -27 -100 -7 -363 35 -465
14 -36 13 -15 -4 65 -20 95 -19 263 1 337 22 76 83 146 156 179 48 22 67 24
190 24 l136 0 -46 18 c-120 47 -239 60 -316 32z"/>
<path d="M11558 10172 c-26 -9 -68 -32 -93 -50 -102 -72 -128 -225 -71 -417
32 -108 140 -331 230 -472 149 -236 498 -668 660 -817 12 -10 54 -51 95 -90
l74 -71 -99 115 c-267 308 -466 621 -597 940 -133 325 -178 645 -121 858 8 27
-10 28 -78 4z"/>
<path d="M12213 10120 c3 -14 28 -101 57 -195 98 -323 125 -479 142 -833 7
-140 15 -235 20 -223 13 35 37 191 43 286 13 167 -23 405 -91 615 -35 105
-111 274 -153 340 -20 30 -22 32 -18 10z"/>
<path d="M11885 9966 c-38 -18 -80 -58 -102 -99 -28 -50 -24 -219 6 -317 74
-241 225 -512 452 -810 48 -63 100 -126 115 -140 18 -16 12 -4 -18 36 -212
279 -376 613 -434 879 -31 144 -22 344 21 448 8 20 0 21 -40 3z"/>
<path d="M11361 9594 c0 -11 3 -14 6 -6 3 7 2 16 -1 19 -3 4 -6 -2 -5 -13z"/>
<path d="M11516 9231 c-12 -77 12 -181 52 -223 28 -30 117 -68 159 -68 l27 0
-36 38 c-50 53 -108 135 -155 220 l-40 73 -7 -40z"/>
<path d="M8579 9127 c-111 -46 -308 -173 -361 -233 -67 -76 9 -150 192 -188
40 -9 103 -30 139 -48 88 -43 91 -44 56 -14 -49 42 -136 83 -200 96 -63 12
-165 55 -165 70 0 12 63 1 129 -21 30 -10 56 -17 58 -15 7 7 -92 67 -129 78
-21 6 -38 15 -38 20 0 13 226 157 314 200 45 21 95 38 114 38 33 0 34 -1 28
-31 -3 -18 -22 -54 -42 -82 l-36 -50 32 23 c33 23 74 80 85 117 4 15 0 28 -14
42 -28 28 -90 27 -162 -2z"/>
<path d="M11415 8972 l-30 -16 55 -7 c100 -11 140 -44 194 -159 39 -82 49 -67
20 30 -42 142 -143 206 -239 152z"/>
<path d="M8710 8949 c-19 -6 -12 -8 25 -4 28 2 68 1 90 -3 l40 -7 -45 -27
c-45 -26 -100 -78 -70 -65 8 3 44 18 78 32 83 34 124 41 164 25 64 -26 64 -32
1 -61 -64 -29 -148 -87 -139 -96 3 -3 12 -1 19 6 21 17 145 58 200 66 42 6 51
4 82 -19 19 -15 35 -31 35 -36 0 -5 -25 -16 -56 -25 -75 -22 -159 -59 -192
-86 -18 -15 -21 -20 -8 -15 58 21 180 47 242 53 70 6 71 5 92 -25 12 -16 22
-32 22 -35 0 -2 -21 -10 -47 -16 -52 -14 -157 -61 -150 -68 3 -2 32 3 65 11
59 16 157 25 165 16 2 -3 23 -41 46 -85 79 -154 201 -274 360 -355 58 -30 69
-39 58 -50 -10 -12 -9 -12 5 -1 13 10 35 10 100 3 84 -11 152 -7 172 9 95 74
118 119 96 186 -16 45 -66 102 -107 119 -48 21 -122 18 -158 -6 -36 -24 -30
-25 20 -4 90 37 215 -41 215 -134 0 -65 -56 -129 -106 -119 -14 2 -21 0 -17
-6 4 -7 -17 -8 -61 -3 -93 9 -127 17 -120 27 3 5 -2 6 -10 3 -21 -8 -143 58
-205 111 -85 72 -159 165 -208 260 -119 232 -272 373 -458 420 -64 16 -194 19
-235 4z"/>
<path d="M8385 8890 c-9 -15 3 -30 24 -30 23 0 31 9 24 26 -6 16 -39 19 -48 4z"/>
<path d="M11672 8851 c3 -13 21 -17 96 -19 59 -2 92 1 92 8 0 5 -12 10 -27 11
-16 0 -59 3 -96 8 -58 6 -67 5 -65 -8z"/>
<path d="M11097 8690 c-120 -46 -354 -227 -530 -409 l-108 -111 -109 0 -108 0
0 49 c0 70 -17 111 -65 159 -94 92 -227 105 -312 31 -19 -17 -35 -36 -35 -41
0 -6 12 1 26 15 77 77 236 50 309 -53 25 -35 30 -51 29 -98 -1 -165 -156 -246
-372 -197 -89 21 -100 28 -82 52 14 17 14 17 -7 0 -21 -18 -23 -18 -96 13 -41
17 -126 60 -188 95 -81 46 -104 56 -79 34 57 -49 189 -134 280 -179 47 -23 86
-46 88 -51 2 -4 9 -6 16 -3 7 3 39 -2 71 -11 174 -45 328 7 394 133 l20 37 1
-61 c0 -59 -2 -64 -35 -93 -47 -41 -118 -77 -123 -62 -2 7 -32 11 -78 11 -67
0 -74 -2 -74 -19 0 -17 -5 -19 -37 -14 -49 8 -143 35 -212 62 -73 28 -239 128
-273 164 -27 29 -59 33 -64 9 -1 -7 0 -8 3 -2 6 12 43 14 43 1 0 -4 -21 -14
-47 -21 -96 -25 -249 -81 -276 -101 -83 -60 -12 69 96 174 43 42 84 77 90 77
6 0 8 3 5 6 -10 9 -60 -22 -93 -56 -16 -17 -45 -41 -63 -52 -18 -11 -41 -36
-52 -56 l-19 -37 -1 43 c0 38 -2 42 -25 42 -14 0 -25 4 -25 9 0 5 -17 15 -37
22 -21 7 -33 14 -26 16 6 2 28 -3 48 -11 36 -15 37 -15 62 12 14 15 44 47 67
71 30 32 35 40 17 31 -13 -7 -44 -32 -68 -57 l-43 -45 -54 22 c-108 45 -116
-14 -10 -76 18 -11 18 -13 -4 -58 -22 -44 -23 -48 -8 -71 9 -14 21 -24 27 -22
7 1 14 -4 16 -10 6 -18 -18 -16 -44 2 -14 10 -20 21 -16 32 5 12 3 14 -6 8
-10 -6 -12 1 -9 31 3 22 8 46 12 54 4 11 -2 19 -24 27 -37 14 -62 66 -49 100
7 19 -1 30 -65 87 -40 37 -76 66 -80 66 -4 0 -28 -17 -54 -38 l-48 -37 29 -45
c58 -89 162 -331 136 -314 -6 3 -1 -12 11 -35 11 -23 22 -60 24 -84 2 -23 9
-55 15 -70 6 -16 11 -38 11 -51 0 -38 50 -124 93 -161 68 -59 128 -75 296 -80
234 -7 384 -58 510 -172 156 -140 235 -339 251 -629 9 -170 30 -228 101 -286
87 -71 179 -103 449 -159 345 -71 445 -117 486 -225 17 -44 16 -131 -2 -180
-14 -38 34 16 85 95 192 300 263 628 207 950 -28 157 -19 286 29 416 172 472
201 978 71 1268 -53 118 -168 165 -289 117z m141 -106 c32 -22 58 -78 89 -191
26 -94 27 -109 27 -333 1 -249 -5 -297 -60 -533 -25 -104 -28 -110 -67 -138
-81 -59 -145 -31 -182 80 -22 66 -72 111 -123 111 -20 0 -70 -12 -110 -26 -64
-24 -77 -26 -111 -16 -55 17 -118 66 -151 119 -34 53 -36 63 -15 63 9 0 15 9
15 25 0 14 -4 25 -9 25 -5 0 -7 -10 -4 -21 4 -16 2 -20 -8 -17 -8 3 -14 14
-15 25 -1 11 -4 25 -7 30 -13 21 14 128 49 197 114 225 356 479 558 586 65 34
92 37 124 14z m-2218 -468 c0 -28 -6 -48 -17 -57 -12 -10 -17 -11 -20 -2 -2 7
-11 9 -20 6 -9 -3 -14 -2 -12 3 21 44 28 61 33 77 3 9 12 17 21 17 11 0 15
-11 15 -44z m1393 -6 c-39 -53 -46 -56 -87 -40 -17 6 -26 17 -27 32 0 13 -3
17 -6 9 -3 -7 -14 -22 -24 -32 -19 -19 -19 -18 -19 31 l0 50 100 0 100 0 -37
-50z m-1393 -100 c0 -12 -28 -25 -36 -17 -9 9 6 27 22 27 8 0 14 -5 14 -10z
m1045 -79 c-6 -5 -36 -12 -67 -16 -50 -6 -58 -5 -58 9 0 13 12 16 67 16 41 0
63 -4 58 -9z m533 -999 c40 -11 76 -23 80 -27 4 -3 -47 -3 -113 0 -314 19
-441 -58 -481 -290 l-7 -40 -9 45 c-11 59 5 141 38 197 39 67 103 107 219 137
39 10 201 -3 273 -22z m-333 -137 c0 -23 -5 -31 -21 -33 -30 -4 -48 21 -34 48
18 33 55 23 55 -15z m309 -54 c-39 -72 -88 -127 -142 -159 -42 -24 -57 -27
-132 -26 -59 0 -97 6 -124 18 -52 23 -42 27 24 10 68 -19 135 -12 204 19 57
26 141 106 172 162 10 19 20 32 22 30 2 -2 -8 -27 -24 -54z m-118 -31 c-52
-78 -120 -98 -205 -60 -47 22 -52 38 -7 20 67 -25 165 3 207 59 33 44 37 29 5
-19z"/>
<path d="M10798 8163 c6 -2 18 -2 25 0 6 3 1 5 -13 5 -14 0 -19 -2 -12 -5z"/>
<path d="M10858 8163 c6 -2 18 -2 25 0 6 3 1 5 -13 5 -14 0 -19 -2 -12 -5z"/>
<path d="M10709 8123 c-13 -16 -12 -17 4 -4 9 7 17 15 17 17 0 8 -8 3 -21 -13z"/>
<path d="M10705 7970 c10 -11 20 -20 23 -20 3 0 -3 9 -13 20 -10 11 -20 20
-23 20 -3 0 3 -9 13 -20z"/>
<path d="M10838 7963 c7 -3 16 -2 19 1 4 3 -2 6 -13 5 -11 0 -14 -3 -6 -6z"/>
<path d="M10808 7923 c7 -3 16 -2 19 1 4 3 -2 6 -13 5 -11 0 -14 -3 -6 -6z"/>
<path d="M10910 7780 c-9 -6 -10 -10 -3 -10 6 0 15 5 18 10 8 12 4 12 -15 0z"/>
<path d="M10964 7758 l-19 -23 23 19 c21 18 27 26 19 26 -2 0 -12 -10 -23 -22z"/>
<path d="M10818 7763 c12 -2 32 -2 45 0 12 2 2 4 -23 4 -25 0 -35 -2 -22 -4z"/>
<path d="M8220 8681 c-110 -34 -182 -131 -216 -293 -11 -53 -15 -116 -12 -230
2 -86 -1 -154 -5 -151 -5 3 -4 -3 1 -13 6 -11 17 -60 26 -109 8 -50 18 -104
22 -122 6 -29 4 -32 -22 -36 l-29 -4 31 -2 c31 -1 31 -2 57 -103 23 -89 27
-123 27 -253 0 -179 22 -301 73 -409 24 -52 31 -78 26 -96 -15 -53 -9 -214 11
-298 22 -91 72 -207 115 -268 30 -43 30 -41 -13 61 -68 164 -87 346 -48 471
l18 60 -29 60 c-64 127 -89 297 -73 477 10 108 10 115 -14 178 -50 134 -80
264 -91 399 -2 25 -7 53 -11 63 -10 26 3 199 21 274 19 80 65 182 95 208 34
30 113 27 172 -8 54 -31 58 -32 58 -12 0 18 31 35 64 35 14 0 26 3 26 8 0 12
-131 89 -183 106 -52 17 -60 18 -97 7z"/>
<path d="M12026 8578 c-36 -129 1 -492 71 -698 25 -74 50 -128 39 -85 -3 11
-15 76 -27 145 -27 154 -30 400 -6 495 l15 60 -35 45 c-20 25 -40 49 -43 53
-4 5 -10 -2 -14 -15z"/>
<path d="M8609 8535 c-12 -13 -24 -13 -68 -5 -65 12 -72 12 -90 1 -20 -13 1
-38 40 -46 34 -8 34 -7 12 -63 -15 -39 -15 -45 0 -59 22 -22 54 -11 114 40 28
24 71 56 96 70 l45 27 64 -38 c79 -48 159 -81 212 -88 38 -4 37 -3 -19 19 -73
28 -183 88 -223 122 -17 14 -32 25 -35 25 -9 0 -139 -91 -175 -121 -57 -50
-68 -34 -27 38 l26 43 -30 0 c-16 0 -32 4 -35 9 -3 5 13 6 37 4 34 -4 46 -1
61 16 22 24 18 29 -5 6z"/>
<path d="M6691 8450 c14 -31 19 -36 19 -24 0 6 -7 19 -16 30 -14 18 -14 18 -3
-6z"/>
<path d="M12160 8287 c0 -426 107 -1063 256 -1528 44 -137 144 -403 149 -397
2 2 -17 81 -41 176 -82 326 -144 676 -175 982 -14 138 -18 530 -7 655 l7 80
-87 93 c-48 51 -90 92 -94 92 -5 0 -8 -69 -8 -153z"/>
<path d="M6409 8403 l-24 -28 26 23 c55 48 40 18 -26 -50 l-70 -73 72 69 c64
62 79 86 54 86 -4 0 -18 -12 -32 -27z"/>
<path d="M6359 8353 c-13 -16 -12 -17 4 -4 9 7 17 15 17 17 0 8 -8 3 -21 -13z"/>
<path d="M6366 8282 c-3 -5 1 -9 9 -9 8 0 12 4 9 9 -3 4 -7 8 -9 8 -2 0 -6 -4
-9 -8z"/>
<path d="M6943 8163 c15 -2 37 -2 50 0 12 2 0 4 -28 4 -27 0 -38 -2 -22 -4z"/>
<path d="M7263 8163 c15 -2 37 -2 50 0 12 2 0 4 -28 4 -27 0 -38 -2 -22 -4z"/>
<path d="M7535 8159 c-4 -6 -4 -13 -1 -16 3 -4 6 -1 6 6 0 9 11 12 34 9 19 -2
32 0 30 4 -8 12 -62 10 -69 -3z"/>
<path d="M7813 8164 c9 -9 96 -10 90 -1 -2 4 -25 7 -50 7 -26 0 -43 -3 -40 -6z"/>
<path d="M8126 8154 c-5 -14 -4 -15 9 -4 8 7 30 10 50 8 19 -2 35 0 35 4 0 4
-20 8 -44 8 -31 0 -46 -5 -50 -16z"/>
<path d="M8363 8163 c9 -2 23 -2 30 0 6 3 -1 5 -18 5 -16 0 -22 -2 -12 -5z"/>
<path d="M8590 8166 c0 -2 13 -6 29 -8 17 -2 28 -1 25 4 -5 8 -54 12 -54 4z"/>
<path d="M9918 8163 c7 -3 16 -2 19 1 4 3 -2 6 -13 5 -11 0 -14 -3 -6 -6z"/>
<path d="M7030 8110 c6 -11 13 -20 16 -20 2 0 0 9 -6 20 -6 11 -13 20 -16 20
-2 0 0 -9 6 -20z"/>
<path d="M7567 8073 c-4 -3 -7 -11 -7 -17 0 -6 5 -5 12 2 6 6 9 14 7 17 -3 3
-9 2 -12 -2z"/>
<path d="M7950 8060 c6 -11 13 -20 16 -20 2 0 0 9 -6 20 -6 11 -13 20 -16 20
-2 0 0 -9 6 -20z"/>
<path d="M6990 8040 c6 -11 13 -20 16 -20 2 0 0 9 -6 20 -6 11 -13 20 -16 20
-2 0 0 -9 6 -20z"/>
<path d="M10020 8046 c7 -7 13 -7 20 0 6 6 3 10 -10 10 -13 0 -16 -4 -10 -10z"/>
<path d="M7890 8030 c6 -11 13 -20 16 -20 2 0 0 9 -6 20 -6 11 -13 20 -16 20
-2 0 0 -9 6 -20z"/>
<path d="M7080 8021 c0 -6 4 -13 10 -16 6 -3 7 1 4 9 -7 18 -14 21 -14 7z"/>
<path d="M7476 8015 c-9 -26 -7 -32 5 -12 6 10 9 21 6 23 -2 3 -7 -2 -11 -11z"/>
<path d="M7921 7980 c14 -31 19 -36 19 -24 0 6 -7 19 -16 30 -14 18 -14 18 -3
-6z"/>
<path d="M7116 7958 c3 -5 10 -6 15 -3 13 9 11 12 -6 12 -8 0 -12 -4 -9 -9z"/>
<path d="M7696 7917 c3 -10 9 -15 12 -12 3 3 0 11 -7 18 -10 9 -11 8 -5 -6z"/>
<path d="M7956 7917 c3 -10 9 -15 12 -12 3 3 0 11 -7 18 -10 9 -11 8 -5 -6z"/>
<path d="M7081 7878 c-1 -12 -15 -18 -63 -23 -146 -16 -251 -77 -374 -216 -69
-78 -176 -292 -159 -319 3 -5 24 -10 45 -10 84 0 230 -81 327 -183 33 -34 76
-77 97 -96 31 -29 70 -96 102 -176 7 -16 9 -13 12 17 5 52 -22 103 -85 164
-29 28 -53 57 -53 64 0 7 17 67 39 134 21 66 58 203 82 304 l44 182 37 0 38 0
-2 88 -2 87 -3 -82 -4 -83 -29 0 c-34 0 -35 3 -18 67 9 39 9 48 -4 57 -8 6
-17 18 -21 26 -4 12 -6 12 -6 -2z"/>
<path d="M7476 7825 c-9 -26 -7 -32 5 -12 6 10 9 21 6 23 -2 3 -7 -2 -11 -11z"/>
<path d="M7360 7728 c0 -5 18 -8 39 -8 22 0 42 3 44 8 3 4 -15 7 -39 7 -24 0
-44 -3 -44 -7z"/>
<path d="M7718 7723 c6 -2 18 -2 25 0 6 3 1 5 -13 5 -14 0 -19 -2 -12 -5z"/>
<path d="M8378 7723 c7 -3 16 -2 19 1 4 3 -2 6 -13 5 -11 0 -14 -3 -6 -6z"/>
<path d="M8608 7723 c6 -2 18 -2 25 0 6 3 1 5 -13 5 -14 0 -19 -2 -12 -5z"/>
<path d="M6109 7693 c-13 -16 -12 -17 4 -4 9 7 17 15 17 17 0 8 -8 3 -21 -13z"/>
<path d="M6136 7569 c-41 -27 -65 -38 -79 -33 -14 4 -17 3 -12 -7 6 -9 3 -10
-11 -5 -15 6 -16 5 -7 -5 9 -9 24 -6 65 14 47 23 122 76 108 76 -3 0 -31 -18
-64 -40z"/>
<path d="M7130 7558 c-6 -24 -21 -78 -32 -121 -21 -77 -21 -79 -4 -175 78
-423 211 -755 373 -932 48 -53 52 -61 86 -190 191 -724 582 -1224 1091 -1394
76 -26 64 -13 -22 22 -317 130 -591 430 -766 839 -79 186 -149 434 -181 640
l-17 108 -50 49 c-124 123 -230 371 -297 691 -14 70 -71 421 -71 441 0 3 -89
64 -94 64 -3 0 -10 -19 -16 -42z"/>
<path d="M5020 7356 c0 -2 8 -10 18 -17 15 -13 16 -12 3 4 -13 16 -21 21 -21
13z"/>
<path d="M6145 7321 c-152 -52 -311 -232 -355 -401 -6 -25 -16 -62 -21 -83 -9
-33 -22 -45 -107 -101 -219 -145 -308 -288 -318 -511 l-5 -100 25 51 c32 68
89 157 139 217 65 76 199 157 261 157 12 0 57 -21 100 -46 93 -55 138 -63 201
-40 52 20 118 90 136 143 17 54 5 129 -35 213 -86 179 -79 344 16 412 28 19
45 23 108 23 66 0 82 -4 134 -33 l58 -33 -27 36 c-81 105 -188 139 -310 96z
m-135 -480 c23 -44 3 -159 -36 -202 -57 -63 -97 34 -59 142 27 74 72 103 95
60z"/>
<path d="M8815 6927 l-60 -13 44 -7 c60 -10 81 -24 81 -51 0 -46 40 -151 71
-190 67 -80 185 -106 322 -70 l62 16 24 -28 24 -28 -5 84 c-7 133 -60 215
-170 266 -58 27 -73 29 -198 31 -76 1 -161 -4 -195 -10z m266 -113 c17 -21 0
-49 -32 -49 -24 0 -36 23 -25 51 7 19 40 18 57 -2z m-18 -139 c42 -17 94 -19
133 -5 45 18 40 2 -7 -20 -83 -37 -147 -21 -199 52 -40 55 -38 68 4 24 18 -20
49 -43 69 -51z"/>
<path d="M7058 6743 c-35 -41 -43 -68 -42 -158 0 -54 6 -99 13 -110 11 -18 12
-18 7 -2 -4 13 0 20 14 24 37 10 63 146 40 208 -8 22 -7 27 13 35 12 5 17 9
10 9 -6 1 -18 3 -25 6 -8 3 -21 -2 -30 -12z"/>
<path d="M5396 6628 c-146 -160 -239 -317 -292 -493 -23 -77 -27 -109 -28
-225 -1 -112 3 -151 23 -229 31 -120 107 -271 199 -393 72 -97 127 -155 87
-93 -82 128 -156 296 -179 410 -87 427 -6 788 238 1053 21 23 37 45 34 48 -3
3 -40 -32 -82 -78z"/>
<path d="M7166 6375 c25 -62 50 -145 65 -221 15 -75 19 -375 7 -504 l-8 -75
25 61 c81 206 68 443 -35 659 -43 92 -83 150 -54 80z"/>
<path d="M9926 6156 c5 -160 4 -168 -13 -160 -10 4 -83 9 -163 11 -80 1 -155
2 -168 3 -13 0 -31 -4 -41 -10 -10 -5 -21 -6 -25 -3 -4 4 -4 77 -2 162 l5 156
-14 -100 c-28 -196 -29 -220 -10 -253 10 -16 47 -48 81 -71 49 -32 64 -48 64
-66 0 -27 52 -75 82 -75 25 0 78 53 78 79 0 13 20 33 64 62 34 23 71 55 81 71
19 33 19 48 -10 258 l-14 105 5 -169z"/>
<path d="M7376 5981 c42 -87 55 -140 61 -251 6 -124 -13 -251 -56 -377 -16
-46 -27 -83 -25 -83 9 0 68 129 96 213 29 84 32 103 32 217 1 149 -18 211 -90
287 l-45 48 27 -54z"/>
<path d="M8915 5904 c-170 -31 -381 -111 -567 -215 -59 -33 -110 -64 -112 -68
-3 -4 46 19 107 50 285 146 576 227 817 230 63 1 87 4 70 9 -41 13 -229 9
-315 -6z"/>
<path d="M10210 5910 c-17 -5 7 -8 70 -9 241 -3 532 -84 817 -230 61 -31 110
-54 107 -50 -9 16 -225 129 -328 173 -127 54 -246 91 -365 111 -88 16 -259 18
-301 5z"/>
<path d="M9075 5855 c-212 -47 -494 -205 -697 -392 -61 -56 -51 -56 15 1 85
72 270 192 385 250 118 59 287 120 390 141 l67 13 -50 0 c-27 0 -77 -6 -110
-13z"/>
<path d="M10272 5856 c106 -23 274 -84 390 -142 109 -55 292 -173 383 -247 32
-27 41 -31 25 -13 -33 36 -195 160 -290 221 -161 104 -367 182 -499 190 l-76
5 67 -14z"/>
<path d="M6972 5800 c-4 -94 -48 -210 -80 -210 -14 0 -15 -2 -2 -10 24 -15
-17 -53 -50 -45 -24 6 -24 6 -5 -9 20 -16 19 -17 -25 -55 -86 -76 -214 -130
-357 -151 -142 -21 -146 -28 -17 -29 251 -2 410 75 491 240 31 62 55 184 50
254 -3 52 -3 54 -5 15z"/>
<path d="M6390 5820 c0 -4 41 -47 91 -94 l91 -87 -32 -75 c-36 -81 -40 -84
-139 -120 -36 -13 -55 -22 -41 -20 14 3 54 10 90 17 57 10 70 9 97 -5 46 -23
51 -20 18 14 -28 29 -28 31 -17 80 6 27 18 65 26 83 12 30 19 35 59 39 49 6
119 37 163 74 l29 24 -28 -10 c-16 -5 -64 -10 -107 -10 -83 0 -117 10 -238 68
-34 17 -62 27 -62 22z"/>
<path d="M9135 5804 c-86 -30 -202 -99 -303 -180 -82 -66 -235 -220 -291 -294
-19 -25 6 -2 56 51 173 181 371 329 549 409 100 45 94 52 -11 14z"/>
<path d="M10283 5796 c176 -78 338 -196 517 -376 74 -74 119 -115 100 -90 -19
25 -91 102 -160 171 -137 137 -279 240 -398 289 -104 42 -151 47 -59 6z"/>
<path d="M6070 5770 c8 -5 20 -10 25 -10 6 0 3 5 -5 10 -8 5 -19 10 -25 10 -5
0 -3 -5 5 -10z"/>
<path d="M5948 5703 c18 -2 45 -2 60 0 15 2 0 4 -33 4 -33 0 -45 -2 -27 -4z"/>
<path d="M6048 5693 c6 -2 18 -2 25 0 6 3 1 5 -13 5 -14 0 -19 -2 -12 -5z"/>
<path d="M6108 5683 c7 -3 16 -2 19 1 4 3 -2 6 -13 5 -11 0 -14 -3 -6 -6z"/>
<path d="M9706 5665 c-13 -52 -169 -112 -259 -101 -28 4 -60 12 -71 17 -21 10
-21 10 -1 -6 53 -42 200 -45 293 -5 l52 22 53 -22 c92 -40 239 -37 292 5 20
16 20 16 -1 6 -11 -5 -43 -13 -71 -17 -90 -11 -246 49 -259 101 -3 14 -10 25
-14 25 -4 0 -11 -11 -14 -25z"/>
<path d="M6048 5613 c6 -2 18 -2 25 0 6 3 1 5 -13 5 -14 0 -19 -2 -12 -5z"/>
<path d="M5640 5520 c41 -28 123 -91 182 -138 205 -165 356 -233 523 -235 99
-2 173 13 251 49 54 25 168 103 161 110 -2 2 -30 -8 -63 -22 -81 -36 -173 -54
-274 -54 -158 0 -307 48 -475 151 -171 105 -208 126 -270 152 -105 43 -112 40
-35 -13z"/>
</g>
</svg>
