<?xml version="1.0" standalone="no"?>
<!DOCTYPE svg PUBLIC "-//W3C//DTD SVG 20010904//EN"
 "http://www.w3.org/TR/2001/REC-SVG-20010904/DTD/svg10.dtd">
<svg version="1.0" xmlns="http://www.w3.org/2000/svg"
 width="1024.000000pt" height="1024.000000pt" viewBox="0 0 1024.000000 1024.000000"
 preserveAspectRatio="xMidYMid meet">

<g transform="translate(0.000000,1024.000000) scale(0.100000,-0.100000)"
fill="#000000" stroke="none">
<path d="M3372 8693 c-25 -5 -112 -83 -112 -100 0 -6 22 -2 53 8 165 56 310
24 467 -103 33 -26 60 -44 60 -39 0 13 -60 94 -94 125 -102 94 -241 134 -374
109z"/>
<path d="M3404 8564 c-18 -14 -18 -14 5 -3 21 10 27 9 43 -11 14 -17 18 -18
18 -6 0 8 -9 20 -19 26 -25 13 -24 13 -47 -6z"/>
<path d="M3231 8524 c-43 -54 -36 -147 13 -193 l24 -23 -8 35 c-8 39 9 77 35
77 8 0 22 11 30 24 13 20 14 29 4 48 -32 63 -65 74 -98 32z"/>
<path d="M3405 8540 c-8 -14 3 -30 21 -30 18 0 18 8 0 26 -9 9 -17 10 -21 4z"/>
<path d="M3658 8505 c76 -86 152 -220 152 -268 0 -14 18 -38 48 -63 81 -71
176 -258 247 -487 41 -133 44 -123 10 28 -78 345 -230 633 -410 777 -70 56
-89 62 -47 13z"/>
<path d="M3450 8399 c-82 -25 -120 -84 -120 -185 0 -57 24 -166 42 -194 7 -11
8 -8 3 10 -3 14 -11 52 -17 86 -27 155 71 263 241 264 33 1 42 3 30 10 -25 15
-141 20 -179 9z"/>
<path d="M3910 8359 c0 -4 34 -76 75 -160 123 -254 187 -452 219 -669 l14 -95
1 79 c3 233 -82 522 -211 716 -59 89 -97 139 -98 129z"/>
<path d="M3478 8310 c-182 -97 -102 -345 218 -679 104 -109 265 -252 399 -353
106 -81 147 -106 85 -52 -105 90 -286 279 -359 374 -183 237 -301 515 -289
680 3 56 0 58 -54 30z"/>
<path d="M3696 8191 c-55 -58 -51 -147 14 -279 70 -141 245 -355 402 -493 l73
-64 -90 95 c-234 248 -356 480 -358 683 -1 48 -4 87 -7 87 -4 0 -19 -13 -34
-29z"/>
<path d="M1771 8136 c-1 -65 -28 -176 -43 -176 -5 0 -6 5 -3 10 3 6 3 43 -1
83 l-7 72 -16 -75 c-39 -179 -116 -254 -346 -338 -93 -33 -129 -62 -151 -117
-22 -58 -15 -166 19 -283 14 -46 21 -80 18 -75 -4 4 -20 25 -35 46 -66 90
-126 98 -226 32 -78 -52 -129 -75 -150 -67 -11 4 -10 0 3 -16 18 -20 18 -21
-2 -31 -11 -6 -30 -11 -42 -11 -21 0 -21 -1 -5 -19 10 -11 41 -30 69 -43 45
-20 67 -23 162 -22 95 0 120 4 185 28 231 87 499 363 588 607 25 67 27 86 26
209 0 112 -4 144 -21 190 l-22 55 0 -59z"/>
<path d="M3390 7965 c0 -5 5 -17 10 -25 5 -8 10 -10 10 -5 0 6 -5 17 -10 25
-5 8 -10 11 -10 5z"/>
<path d="M3556 7680 c14 -101 48 -140 125 -148 l51 -5 -70 69 c-38 38 -79 83
-91 99 l-22 30 7 -45z"/>
<path d="M2933 7610 c-96 -13 -183 -38 -230 -66 -38 -22 -90 -83 -105 -124
-16 -41 -73 -103 -111 -120 -68 -30 -121 -38 -351 -55 -120 -8 -245 -22 -279
-31 -82 -21 -145 -58 -153 -90 -12 -47 3 -137 42 -253 31 -94 48 -129 96 -192
68 -90 146 -160 209 -188 64 -28 266 -77 399 -97 111 -16 147 -16 321 2 43 4
73 2 87 -5 54 -29 269 -443 301 -579 20 -88 52 -298 71 -471 14 -125 25 -168
73 -276 82 -186 111 -300 127 -490 23 -274 111 -520 255 -710 61 -81 84 -145
120 -340 56 -303 90 -753 83 -1078 l-5 -208 -42 -85 c-24 -47 -61 -105 -84
-128 l-42 -43 -120 -5 c-87 -4 -137 -11 -180 -27 -63 -22 -110 -51 -110 -68 0
-5 -8 -17 -17 -27 -10 -9 -23 -34 -29 -56 -10 -33 -9 -43 4 -64 17 -25 85 -82
90 -75 2 2 11 26 21 52 20 53 57 101 90 118 15 9 12 3 -11 -22 -37 -40 -63
-96 -63 -138 0 -26 5 -31 38 -41 99 -27 427 -36 517 -14 11 3 40 35 64 70 24
36 59 77 77 90 18 14 53 58 78 98 35 57 54 77 86 91 90 41 113 98 135 335 22
243 60 537 101 785 35 213 101 536 111 545 3 3 3 -11 -1 -30 -54 -276 -101
-599 -121 -840 -16 -190 -42 -436 -50 -480 -5 -22 0 -19 35 20 22 25 47 56 54
70 10 19 22 147 41 445 26 420 50 724 61 758 4 12 11 16 22 12 10 -4 43 -11
75 -17 l57 -10 0 -47 c0 -77 -19 -370 -30 -471 -18 -162 -59 -378 -102 -544
-48 -187 -48 -189 34 -373 125 -282 177 -331 328 -305 107 18 120 27 120 79 0
66 -24 112 -99 183 -134 128 -146 256 -44 484 42 93 154 258 168 245 2 -2 9
-51 15 -109 14 -117 10 -217 -16 -367 -17 -97 -17 -104 0 -157 9 -31 20 -56
24 -56 4 0 62 150 129 333 111 305 177 511 294 926 24 85 45 147 47 138 5 -25
-55 -298 -107 -491 -62 -224 -160 -527 -253 -779 -39 -106 -81 -224 -93 -264
l-23 -71 19 -104 c41 -229 56 -257 150 -277 70 -15 228 -14 259 2 23 12 25 18
24 78 -1 49 -10 85 -37 150 -19 46 -38 111 -41 144 l-6 60 28 -85 c16 -47 39
-101 51 -121 12 -21 30 -61 41 -90 l19 -54 66 2 c37 0 69 4 72 7 3 2 8 33 10
68 9 103 -18 142 -157 235 -113 76 -115 78 -100 160 24 142 83 272 178 399 59
78 601 639 609 630 2 -2 -108 -133 -246 -290 -138 -157 -251 -293 -251 -302 0
-24 73 -201 131 -317 101 -201 277 -490 306 -501 37 -14 222 -28 285 -22 90
10 100 19 87 76 -5 25 -21 61 -34 82 -22 33 -23 37 -8 50 21 17 43 71 42 100
0 14 -6 6 -14 -23 -8 -25 -23 -53 -34 -63 -18 -16 -20 -15 -49 14 -17 16 -35
30 -40 30 -5 0 -12 -17 -16 -38 -4 -28 -2 -40 11 -49 15 -11 15 -13 -2 -19
-29 -11 -50 9 -48 47 6 120 4 112 24 93 18 -16 19 -16 19 7 0 13 -8 38 -18 56
-61 111 -74 139 -87 195 -7 35 -16 79 -19 98 -2 19 -3 -10 -1 -65 3 -106 14
-143 59 -209 14 -21 26 -43 26 -49 0 -20 -53 39 -109 123 -163 243 -171 494
-27 796 52 109 151 274 165 274 11 0 89 -123 122 -193 17 -37 37 -89 44 -115
l13 -47 1 36 c2 77 -50 284 -91 362 -9 17 -12 17 -45 -9 -20 -15 -38 -23 -44
-17 -16 16 -30 117 -24 168 15 116 65 257 107 302 12 13 33 23 46 23 52 0 124
-66 169 -154 l20 -38 22 28 23 29 21 -30 c52 -73 146 -158 226 -207 295 -176
588 -411 627 -503 10 -26 16 -74 17 -154 2 -99 -1 -120 -17 -144 -24 -36 -58
-53 -121 -62 -68 -10 -100 -28 -135 -77 -31 -43 -33 -62 -3 -36 37 31 46 28
11 -4 -43 -38 -58 -72 -58 -129 0 -36 3 -41 33 -53 44 -18 91 -26 104 -18 5 4
13 29 15 56 6 47 32 96 57 104 7 2 3 -10 -9 -30 -20 -33 -26 -92 -12 -115 4
-6 53 -17 109 -24 115 -14 194 -4 242 31 33 23 115 181 130 250 11 49 13 301
2 391 l-6 56 -175 142 c-96 78 -218 177 -270 219 -128 104 -226 196 -347 327
-163 178 -176 199 -37 64 260 -253 522 -465 799 -649 176 -116 196 -130 268
-188 279 -225 414 -466 378 -672 -7 -38 -16 -70 -20 -70 -16 0 -146 -139 -172
-185 -50 -87 -27 -195 41 -195 4 0 11 31 15 69 4 41 17 89 31 117 13 27 22 40
18 29 -14 -48 -25 -150 -19 -181 l6 -34 74 0 74 0 -5 78 c-5 58 -3 85 9 112
l16 35 -5 -50 c-2 -27 1 -77 8 -110 l13 -60 83 2 c97 2 229 28 272 54 17 11
35 30 40 44 5 13 9 118 9 232 -1 161 -4 220 -17 263 -9 30 -86 197 -172 370
-87 173 -170 348 -185 388 -31 79 -50 98 -158 162 -116 69 -213 183 -297 349
-52 105 -75 176 -101 316 -12 61 -43 202 -69 315 -27 113 -63 276 -80 363 -17
87 -40 184 -50 215 -10 31 -17 58 -15 60 9 10 40 -87 86 -273 115 -458 129
-493 237 -572 192 -141 479 -210 711 -172 185 30 381 159 381 250 0 61 -83 67
-230 18 -178 -59 -325 -39 -502 68 -141 85 -208 169 -353 448 -180 346 -235
433 -344 548 -199 209 -614 390 -1068 466 -234 40 -311 44 -768 46 -372 1
-471 5 -572 19 -68 10 -130 16 -138 12 -8 -3 -15 -16 -15 -28 0 -66 -88 -356
-205 -678 -37 -102 -72 -200 -77 -219 -15 -51 0 -130 29 -159 37 -36 84 -26
264 56 188 86 265 110 394 122 199 19 300 -6 515 -131 71 -41 55 -26 -40 39
-127 87 -169 133 -189 207 -29 110 56 193 284 274 87 31 92 35 138 96 26 36
47 69 47 74 0 6 8 26 17 46 18 38 39 43 100 26 24 -7 48 -4 93 10 70 21 132
24 179 8 22 -8 29 -15 22 -23 -7 -8 5 -11 42 -11 85 -1 101 -9 129 -67 38 -80
51 -126 45 -169 -5 -40 -83 -207 -157 -337 -22 -39 -39 -72 -36 -72 5 0 130
200 179 285 l29 50 -6 -76 c-3 -42 -17 -126 -30 -185 -14 -60 -35 -183 -46
-274 -38 -304 -81 -466 -180 -677 -61 -128 -149 -275 -161 -268 -5 3 -27 38
-50 77 -31 52 -39 75 -32 87 5 8 38 27 74 42 84 37 70 36 -53 -2 -118 -37
-177 -36 -254 5 -59 31 -90 54 -82 62 3 3 62 30 130 60 144 65 147 65 -136
-26 -417 -134 -826 -239 -1146 -294 -163 -28 -399 -52 -422 -44 -25 10 -89
267 -108 437 -19 167 19 497 71 623 177 428 295 743 360 963 21 72 39 137 39
146 0 10 -15 20 -42 28 -57 17 -148 70 -230 134 -36 28 -110 75 -163 102 -165
85 -252 199 -440 574 -64 128 -118 231 -121 228 -7 -7 27 -147 71 -292 40
-131 128 -367 182 -484 61 -135 28 -91 -89 119 -100 178 -245 569 -307 825
-12 50 -24 96 -26 103 -3 6 -1 12 3 12 4 0 38 -52 76 -115 38 -63 70 -115 71
-115 1 0 -3 33 -10 73 -7 39 -16 107 -20 149 l-7 77 -51 38 c-29 21 -60 44
-71 52 -17 13 -18 11 -11 -40 3 -30 9 -63 11 -74 4 -15 -4 -10 -26 15 l-31 35
7 -45 c9 -65 42 -195 64 -253 32 -83 13 -66 -30 27 -44 94 -84 222 -95 301
l-7 50 31 -35 30 -35 1 46 c0 38 -5 50 -30 74 -32 30 -36 26 -30 -29 1 -13
-33 13 -103 80 -121 115 -222 179 -358 226 -93 32 -97 32 -299 34 -113 1 -233
-1 -267 -6z m711 -108 c26 -25 66 -100 66 -125 0 -6 -13 10 -29 35 -43 68 -82
91 -141 86 -54 -5 -57 6 -6 28 39 17 73 10 110 -24z m-480 -278 c-18 -89 -28
-172 -31 -269 -4 -132 -3 -143 19 -185 43 -84 175 -124 278 -85 25 9 94 32
153 50 150 45 168 65 193 213 16 92 60 184 99 204 19 11 19 10 2 -9 -30 -34
-57 -120 -63 -201 -8 -103 -20 -138 -65 -186 -38 -43 -81 -65 -249 -131 -123
-48 -194 -55 -273 -25 -117 44 -161 125 -161 290 1 121 17 213 64 371 21 69
42 154 46 190 l9 64 3 -81 c2 -57 -5 -117 -24 -210z m-393 74 c44 -23 79 -45
79 -48 0 -4 -33 -14 -72 -23 -40 -10 -84 -20 -97 -24 -18 -4 -22 -3 -16 6 4 7
9 34 11 59 5 62 6 72 12 72 3 0 40 -19 83 -42z m-881 -223 c-12 -36 -62 -75
-96 -75 -15 0 -12 4 11 19 48 30 67 57 73 108 l5 48 9 -33 c6 -22 5 -46 -2
-67z m5543 -2377 c37 -17 72 -37 78 -44 5 -7 29 -15 52 -19 23 -4 53 -14 65
-22 32 -20 55 -77 47 -117 -5 -27 -4 -29 8 -14 30 37 62 39 167 12 110 -28
155 -24 185 19 21 30 19 13 -5 -33 -11 -21 -32 -47 -46 -57 -14 -10 -35 -26
-46 -37 -26 -24 -66 -16 -130 25 -27 18 -52 29 -55 25 -4 -3 -1 -6 5 -6 6 0
47 -33 91 -74 91 -86 138 -106 198 -88 20 6 38 10 40 8 2 -2 -9 -15 -23 -29
-37 -37 -93 -53 -135 -38 -40 14 -52 14 -43 0 10 -17 -74 0 -123 25 -23 11
-54 36 -68 55 -14 19 -25 30 -25 24 0 -6 12 -25 26 -42 14 -17 22 -31 17 -31
-4 0 0 -5 10 -11 19 -11 23 -55 7 -79 -8 -12 -10 -9 -10 12 0 45 -21 77 -64
98 -56 27 -66 48 -72 148 -6 87 -19 147 -33 157 -5 2 -3 -12 5 -33 7 -20 14
-62 14 -92 1 -83 15 -138 40 -166 29 -30 14 -31 -30 -1 -63 41 -75 76 -78 224
l-4 132 -31 24 c-18 13 -59 38 -92 56 -72 38 -36 31 58 -11z m268 -490 c6 -11
9 -36 6 -54 -15 -90 -68 -140 -152 -143 -50 -1 -50 -1 -20 13 59 27 96 87 109
179 7 42 9 46 26 37 11 -6 25 -20 31 -32z m-2881 -640 c0 -5 -11 -8 -25 -8
-24 0 -25 2 -24 73 l0 72 24 -65 c14 -36 25 -68 25 -72z m109 -150 c29 -79 78
-199 108 -268 68 -157 72 -168 34 -100 -78 135 -241 476 -241 501 0 5 11 9 23
9 21 0 29 -15 76 -142z m-1594 -1528 c-3 -5 -11 -10 -16 -10 -6 0 -7 5 -4 10
3 6 11 10 16 10 6 0 7 -4 4 -10z"/>
<path d="M7510 4606 c0 -2 8 -10 18 -17 15 -13 16 -12 3 4 -13 16 -21 21 -21
13z"/>
<path d="M7552 4591 c4 -13 18 -16 19 -4 0 4 -5 9 -11 12 -7 2 -11 -2 -8 -8z"/>
<path d="M7673 4453 c-7 -2 -13 -12 -13 -21 0 -13 2 -13 13 3 11 13 21 16 43
11 21 -5 25 -4 14 4 -16 10 -37 12 -57 3z"/>
<path d="M7661 4344 c0 -11 3 -14 6 -6 3 7 2 16 -1 19 -3 4 -6 -2 -5 -13z"/>
<path d="M1564 7329 c-69 -77 -267 -197 -404 -245 -88 -30 -60 -30 37 1 89 28
188 83 277 154 60 48 125 111 114 111 -3 0 -13 -9 -24 -21z"/>
<path d="M5203 6573 c-21 -8 -15 -41 17 -107 47 -96 69 -200 76 -364 6 -131 4
-159 -16 -251 -17 -78 -19 -105 -10 -111 16 -10 210 -53 215 -48 11 11 25 155
25 264 0 218 -48 411 -129 517 -70 91 -125 122 -178 100z"/>
<path d="M6888 5232 c-14 -15 -37 -46 -51 -69 -15 -23 -31 -44 -37 -48 -5 -3
-10 -11 -10 -16 0 -6 13 -1 30 11 27 19 106 138 97 146 -2 2 -15 -9 -29 -24z"/>
<path d="M7180 5218 c-11 -18 -20 -37 -20 -43 0 -5 9 5 20 23 11 17 27 32 35
32 8 0 15 5 15 10 0 22 -32 8 -50 -22z"/>
<path d="M6450 5081 c-37 -12 -121 -57 -150 -81 -21 -18 -18 -18 20 3 60 33
172 67 224 67 30 0 37 3 26 10 -17 11 -84 12 -120 1z"/>
<path d="M6750 3444 c-36 -42 -86 -96 -112 -119 -53 -48 -53 -48 -35 -67 37
-38 91 -112 116 -158 l29 -52 20 55 c12 30 28 86 36 124 8 37 15 66 16 63 1
-3 7 -51 14 -107 14 -106 30 -144 68 -164 23 -12 23 -12 4 10 -16 18 -20 45
-27 166 -7 134 -37 296 -58 317 -3 4 -36 -27 -71 -68z"/>
<path d="M7072 3193 c-18 -9 -44 -30 -57 -47 -25 -34 -65 -110 -65 -124 0 -5
18 -14 39 -21 45 -13 144 -98 167 -143 9 -17 18 -28 21 -25 6 7 -15 47 -39 73
-19 22 -19 23 0 115 11 52 23 115 27 142 l6 47 -33 0 c-18 0 -48 -8 -66 -17z"/>
<path d="M6826 3010 c-57 -17 -126 -107 -126 -164 0 -19 -13 -35 -49 -62 -61
-46 -91 -98 -97 -172 l-5 -57 19 40 c26 55 66 100 101 115 25 10 34 9 53 -4
12 -9 37 -16 54 -16 60 0 79 54 49 140 -40 113 2 183 89 150 36 -13 32 -4 -6
20 -36 22 -40 22 -82 10z m-36 -206 c0 -32 -18 -66 -31 -59 -13 9 -11 69 3 83
16 16 28 5 28 -24z"/>
<path d="M7172 2788 c-16 -16 -16 -91 1 -85 7 2 12 22 12 50 1 26 0 47 0 47
-1 0 -6 -5 -13 -12z"/>
<path d="M6506 2687 c-14 -18 -39 -63 -57 -101 -41 -87 -44 -175 -9 -249 27
-57 34 -56 21 4 -24 103 -5 227 48 326 33 61 32 67 -3 20z"/>
<path d="M7243 2592 c12 -37 20 -88 21 -144 1 -102 16 -95 16 9 0 49 -7 90
-21 127 -27 74 -41 80 -16 8z"/>
<path d="M7320 2472 c21 -56 25 -114 11 -174 -5 -21 -5 -36 -1 -33 5 3 14 30
20 61 13 64 1 133 -30 174 -19 24 -19 24 0 -28z"/>
<path d="M7158 2406 c-8 -63 -32 -95 -98 -128 -60 -31 -48 -38 16 -9 66 30
103 94 92 162 -2 15 -6 6 -10 -25z"/>
<path d="M6984 2402 c26 -28 27 -34 17 -63 -13 -38 -13 -39 -3 -39 4 0 12 15
17 32 6 19 21 38 35 45 l25 13 -28 0 c-16 0 -43 10 -60 22 l-32 21 29 -31z"/>
<path d="M3773 2318 c-78 -26 -139 -76 -154 -128 -10 -31 -9 -43 1 -55 11 -14
16 -11 36 19 13 18 30 36 39 40 12 4 9 -3 -8 -24 -43 -51 -44 -70 -6 -103 l34
-28 33 38 c41 46 74 110 96 182 27 92 27 92 -71 59z"/>
<path d="M6740 2281 c67 -58 146 -93 209 -94 31 0 66 5 76 10 15 9 9 10 -27 6
-67 -8 -136 12 -220 63 -57 35 -65 38 -38 15z"/>
<path d="M7204 2178 c-15 -29 -41 -73 -58 -98 -29 -42 -31 -51 -30 -127 1 -76
-1 -82 -21 -87 -12 -3 -37 -1 -56 4 -46 13 -48 12 -20 -10 32 -28 93 -26 125
3 25 21 26 23 11 62 -22 63 -19 83 36 193 28 57 49 106 46 109 -3 3 -18 -19
-33 -49z"/>
<path d="M6588 2194 c15 -28 93 -98 133 -121 25 -13 56 -18 114 -18 67 0 89 5
138 29 70 34 71 45 1 14 -110 -48 -248 -19 -350 74 -26 23 -42 34 -36 22z"/>
<path d="M7294 2167 c10 -7 27 -24 37 -38 10 -13 19 -18 19 -11 0 16 -45 62
-61 62 -7 0 -5 -6 5 -13z"/>
<path d="M7222 2090 c3 -10 19 -15 44 -16 29 -1 32 -1 9 3 -16 3 -36 10 -44
16 -11 10 -13 9 -9 -3z"/>
<path d="M6963 2028 c-57 -60 -65 -92 -33 -129 l19 -24 -6 37 c-7 49 1 80 33
117 34 41 26 40 -13 -1z"/>
</g>
</svg>
