<?xml version="1.0" standalone="no"?>
<!DOCTYPE svg PUBLIC "-//W3C//DTD SVG 20010904//EN"
 "http://www.w3.org/TR/2001/REC-SVG-20010904/DTD/svg10.dtd">
<svg version="1.0" xmlns="http://www.w3.org/2000/svg"
 width="380.000000pt" height="291.000000pt" viewBox="0 0 380.000000 291.000000"
 preserveAspectRatio="xMidYMid meet">

<g transform="translate(0.000000,291.000000) scale(0.100000,-0.100000)"
fill="#000000" stroke="none">
<path d="M1715 2320 c-36 -6 -33 -7 30 -12 145 -11 172 -17 255 -58 29 -14 49
-66 59 -155 9 -81 9 -83 7 -22 -1 37 2 67 7 67 5 0 22 -14 38 -31 31 -33 37
-75 19 -124 -6 -16 -6 -24 0 -20 5 3 14 21 19 40 14 52 -3 99 -49 136 -21 17
-42 44 -45 59 -12 53 -103 109 -180 110 -22 1 -58 4 -80 8 -22 4 -58 5 -80 2z"/>
<path d="M1434 2212 c-66 -43 -114 -94 -114 -122 0 -34 19 -70 63 -118 24 -26
58 -68 75 -93 39 -58 97 -109 123 -109 33 0 40 42 37 222 -3 142 -5 164 -15
141 -7 -17 -12 -80 -13 -160 0 -107 -3 -135 -16 -148 -21 -20 -35 -9 -80 60
-17 28 -39 57 -48 64 -28 23 -84 105 -91 133 -6 22 1 34 42 75 26 27 62 59 78
71 50 35 22 25 -41 -16z"/>
<path d="M2601 2185 c2 -47 2 -48 9 -15 l7 35 16 -37 c19 -42 39 -60 29 -25
-4 13 -19 39 -34 58 l-28 34 1 -50z"/>
<path d="M2819 2121 c-39 -12 -71 -31 -101 -58 -14 -14 -29 -25 -32 -24 -22 4
-30 0 -16 -9 11 -7 22 -2 40 15 36 35 104 62 140 57 l31 -4 -62 -57 c-34 -31
-71 -61 -83 -68 -12 -7 -16 -12 -11 -13 14 0 51 25 99 68 21 19 61 45 90 58
l51 24 -50 0 c-36 0 -46 3 -35 10 12 8 10 10 -10 9 -14 0 -37 -4 -51 -8z"/>
<path d="M1764 2090 c-35 -14 -37 -28 -5 -26 17 1 28 -2 25 -6 -6 -9 3 -10 34
-2 13 4 22 14 22 25 0 21 -37 25 -76 9z"/>
<path d="M1992 2088 c5 -15 58 -24 58 -10 0 11 -24 22 -47 22 -8 0 -13 -6 -11
-12z"/>
<path d="M2512 2015 c-12 -14 -18 -25 -13 -25 5 0 16 11 25 25 9 14 15 25 13
25 -2 0 -13 -11 -25 -25z"/>
<path d="M2444 1971 c-16 -10 -38 -28 -49 -41 -18 -20 -14 -19 25 6 25 16 46
32 48 36 2 4 10 4 18 1 8 -3 14 -3 14 0 0 14 -31 13 -56 -2z"/>
<path d="M1975 1896 c-15 -15 -22 -31 -19 -40 7 -17 44 -22 44 -6 0 6 7 10 16
10 24 0 11 -24 -17 -31 -20 -5 -21 -7 -7 -13 9 -4 31 -6 50 -4 27 2 33 7 32
26 0 12 3 22 8 22 17 0 7 29 -14 44 -32 23 -65 20 -93 -8z"/>
<path d="M2650 1885 c13 -14 28 -25 34 -24 6 0 5 3 -2 6 -6 2 -10 8 -8 12 2 3
-7 12 -21 18 l-26 13 23 -25z"/>
<path d="M2732 1840 c0 -19 2 -27 5 -17 2 9 2 25 0 35 -3 9 -5 1 -5 -18z"/>
<path d="M2691 1834 c0 -11 3 -14 6 -6 3 7 2 16 -1 19 -3 4 -6 -2 -5 -13z"/>
<path d="M2101 1790 c-1 -14 -6 -32 -11 -40 -8 -13 -11 -12 -24 5 -15 20 -15
20 -48 1 -143 -83 -211 -83 -286 0 l-44 48 16 -39 c19 -47 65 -92 103 -101 38
-10 109 11 175 52 60 36 78 37 78 3 0 -10 4 -19 10 -19 16 0 41 60 37 88 -4
27 -4 27 -6 2z"/>
<path d="M2705 1775 c3 -22 5 -58 6 -80 l0 -40 15 45 c7 25 13 56 13 70 l-1
25 -8 -25 c-7 -26 -12 -21 -24 25 -3 11 -3 2 -1 -20z"/>
<path d="M2625 1775 c-38 -31 -54 -32 -29 -3 10 13 -2 5 -27 -17 -25 -22 -44
-41 -43 -43 1 -2 19 4 39 12 35 15 36 15 24 -1 -13 -15 -12 -15 6 -6 23 13 62
53 50 53 -4 0 -2 7 5 15 18 21 10 18 -25 -10z"/>
<path d="M1377 1716 c-40 -80 -61 -153 -75 -261 -5 -38 -26 -113 -47 -165 -20
-52 -39 -111 -42 -130 -4 -31 -2 -29 15 15 10 28 29 70 42 95 36 71 60 150 60
198 0 58 25 157 61 246 16 39 27 71 25 73 -1 1 -19 -30 -39 -71z"/>
<path d="M1506 1700 c3 -14 9 -95 14 -180 4 -85 12 -166 17 -179 10 -24 10 -5
0 229 -3 52 -10 99 -21 120 -11 23 -14 26 -10 10z"/>
<path d="M2025 1690 c-3 -5 -17 -10 -31 -10 -14 0 -22 -4 -19 -10 3 -5 10 -10
14 -10 11 0 59 39 49 40 -4 0 -10 -4 -13 -10z"/>
<path d="M2285 1680 c11 -5 39 -9 63 -9 80 -2 197 -31 280 -72 179 -87 280
-247 283 -448 1 -49 6 -74 16 -83 23 -19 31 -50 22 -78 -9 -24 -9 -24 7 -5 10
13 13 30 9 50 -3 17 -10 64 -15 105 -45 351 -232 516 -615 544 -45 3 -63 2
-50 -4z"/>
<path d="M2168 1673 c7 -3 16 -2 19 1 4 3 -2 6 -13 5 -11 0 -14 -3 -6 -6z"/>
<path d="M1774 1621 c-38 -23 -86 -97 -119 -184 -34 -91 -31 -110 3 -22 49
121 113 205 159 205 36 0 28 -30 -27 -101 -27 -35 -50 -68 -50 -73 0 -5 10 4
22 20 12 16 39 48 60 71 39 44 47 70 26 91 -17 17 -38 15 -74 -7z"/>
<path d="M850 1563 c0 -67 17 -119 48 -152 15 -15 22 -20 15 -11 -24 31 -43
90 -43 132 1 41 1 42 16 23 9 -11 29 -47 45 -80 29 -59 31 -36 3 33 -7 17 -11
32 -9 32 2 0 20 -21 40 -46 38 -51 48 -51 13 -1 -27 40 -105 117 -118 117 -6
0 -10 -21 -10 -47z"/>
<path d="M1115 1539 c-4 -13 -19 -37 -34 -53 l-26 -29 28 18 c15 10 32 25 38
34 7 12 9 -2 5 -49 -3 -38 -1 -57 4 -45 7 19 8 18 13 -5 14 -58 16 -63 10 -20
-3 25 -6 68 -7 97 -1 59 -20 90 -31 52z"/>
<path d="M2406 1409 c-73 -86 20 -242 261 -436 l96 -76 -77 -19 c-84 -19 -126
-42 -126 -66 0 -13 4 -11 15 6 19 25 91 48 188 59 l67 8 -106 80 c-58 44 -145
120 -193 170 -124 129 -159 217 -110 279 29 36 16 33 -15 -5z"/>
<path d="M948 1288 c-9 -24 2 -40 18 -27 11 9 14 6 15 -17 1 -23 3 -24 6 -7 7
38 -27 83 -39 51z"/>
<path d="M1090 1281 c-5 -11 -9 -30 -9 -43 1 -19 3 -18 9 7 4 17 8 24 9 18 0
-7 5 -13 11 -13 5 0 9 11 8 25 -3 30 -13 32 -28 6z"/>
<path d="M1624 1265 c-9 -14 -18 -47 -20 -73 l-4 -47 15 46 c23 73 37 77 78
27 19 -24 42 -56 51 -73 15 -26 16 -27 10 -5 -10 39 -32 77 -65 115 -37 42
-43 43 -65 10z"/>
<path d="M906 1254 c-12 -32 -5 -56 23 -85 16 -16 38 -29 48 -29 13 0 9 6 -14
20 -32 19 -50 57 -44 93 3 21 -5 22 -13 1z"/>
<path d="M1150 1240 c-1 -38 -12 -57 -50 -83 -17 -12 -20 -17 -9 -17 25 0 66
37 73 64 3 13 2 35 -3 48 -9 21 -10 20 -11 -12z"/>
<path d="M740 1223 c-84 -30 -145 -103 -156 -185 -7 -50 -12 -56 -32 -36 -9 9
-12 8 -12 -5 0 -9 12 -24 26 -33 14 -10 34 -34 44 -54 10 -20 26 -43 35 -50
13 -11 13 -6 -4 20 -33 55 -45 127 -31 180 16 60 89 134 148 150 57 15 88 10
84 -12 -4 -25 3 -22 22 7 l16 25 -62 -1 c-35 0 -70 -3 -78 -6z"/>
<path d="M1046 1173 c-6 -14 -5 -15 5 -6 7 7 10 15 7 18 -3 3 -9 -2 -12 -12z"/>
<path d="M3025 1151 c22 -24 67 -62 101 -86 105 -76 186 -108 363 -142 19 -3
22 -6 11 -13 -48 -29 -202 -14 -357 35 -42 13 -79 23 -81 21 -4 -5 110 -50
183 -72 86 -26 270 -26 309 -1 25 17 26 21 14 33 -8 8 -57 21 -109 29 -52 8
-115 21 -140 29 -92 28 -202 93 -289 170 l-45 40 40 -43z"/>
<path d="M1631 1143 c-1 -23 23 -53 42 -52 8 0 8 2 -1 6 -6 2 -10 9 -6 14 3 5
0 8 -7 7 -7 -2 -16 8 -20 22 -6 23 -7 23 -8 3z"/>
<path d="M2190 1146 c113 -17 173 -41 231 -93 57 -52 89 -122 89 -198 0 -75
-22 -114 -79 -140 -40 -18 -52 -18 -267 -5 -123 7 -227 11 -229 8 -10 -9 375
-50 438 -46 135 8 195 106 153 250 -41 143 -159 221 -350 233 l-81 5 95 -14z"/>
<path d="M2033 1143 c9 -2 25 -2 35 0 9 3 1 5 -18 5 -19 0 -27 -2 -17 -5z"/>
<path d="M1495 1102 c-16 -11 -37 -27 -45 -38 -10 -14 -10 -16 0 -7 10 9 17
10 27 1 11 -9 12 -7 6 7 -5 14 -3 17 10 12 12 -4 14 -2 10 11 -6 14 -4 15 9 4
13 -10 16 -9 21 8 6 25 0 25 -38 2z"/>
<path d="M1127 1083 c-10 -48 -63 -103 -101 -104 -30 0 -30 -1 -7 -10 20 -8
31 -6 53 11 15 11 31 20 36 20 12 0 35 72 30 96 -3 14 -6 10 -11 -13z"/>
<path d="M2810 1096 c0 -25 77 -161 111 -196 22 -22 39 -44 39 -50 0 -16 -40
-32 -114 -45 -71 -13 -71 -13 -21 -14 28 0 73 8 100 17 68 23 72 49 16 100
-23 20 -61 73 -86 117 -25 44 -45 75 -45 71z"/>
<path d="M820 1015 c0 -24 25 -85 35 -85 2 0 -3 16 -11 37 -9 20 -13 44 -11
55 3 10 1 18 -4 18 -5 0 -9 -11 -9 -25z"/>
<path d="M1262 1007 l-22 -13 30 -46 c17 -25 49 -58 73 -73 l42 -28 -41 45
c-44 48 -69 86 -61 95 3 2 27 11 54 18 l48 13 -50 1 c-27 0 -60 -5 -73 -12z"/>
<path d="M778 978 c19 -19 40 -53 47 -74 12 -33 14 -35 15 -13 0 31 -35 86
-70 107 -21 13 -19 10 8 -20z"/>
<path d="M1984 981 c-33 -16 -86 -54 -120 -86 l-59 -57 54 46 c64 53 152 102
207 115 36 8 37 9 9 10 -16 1 -57 -12 -91 -28z"/>
<path d="M1125 970 c-27 -16 -84 -41 -125 -56 -41 -14 -98 -41 -125 -60 -33
-21 -76 -38 -124 -48 -82 -17 -156 -49 -165 -72 -4 -10 3 -8 22 6 26 19 142
49 191 50 13 0 48 16 78 36 29 19 85 48 123 64 62 25 180 95 180 106 0 6 -2 5
-55 -26z"/>
<path d="M1367 961 c15 -16 30 -24 32 -18 2 6 -6 19 -19 29 -35 28 -44 21 -13
-11z"/>
<path d="M930 960 c0 -8 5 -22 10 -30 9 -13 10 -13 10 0 0 8 -5 22 -10 30 -9
13 -10 13 -10 0z"/>
<path d="M1674 948 l-19 -23 23 19 c21 18 27 26 19 26 -2 0 -12 -10 -23 -22z"/>
<path d="M1785 869 c-4 -6 -5 -12 -2 -15 2 -3 7 2 10 11 7 17 1 20 -8 4z"/>
<path d="M1525 850 c-19 -8 -19 -9 2 -9 12 -1 25 4 28 9 7 12 -2 12 -30 0z"/>
<path d="M2688 839 c-19 -11 -24 -44 -8 -54 6 -3 7 1 4 10 -4 9 2 25 11 35 20
22 18 24 -7 9z"/>
<path d="M1311 806 c-31 -32 -34 -33 -139 -39 -139 -7 -220 -28 -318 -82 -96
-54 -89 -57 19 -9 90 40 198 64 285 64 86 1 131 15 170 53 19 19 30 37 25 40
-6 4 -24 -9 -42 -27z"/>
<path d="M1658 824 c-16 -8 -28 -19 -28 -24 0 -16 50 -11 56 5 11 26 0 34 -28
19z"/>
<path d="M2617 833 c-4 -3 -7 -16 -6 -27 0 -14 2 -16 6 -6 3 8 12 21 21 28 14
10 14 12 1 12 -9 0 -19 -3 -22 -7z"/>
<path d="M1379 803 c-7 -19 -6 -29 2 -37 9 -8 10 -8 5 1 -3 6 -2 23 4 37 5 14
7 26 5 26 -3 0 -10 -12 -16 -27z"/>
<path d="M1419 803 c0 -5 -2 -16 -4 -27 -5 -27 4 -43 28 -49 12 -2 31 -8 42
-12 l20 -8 -20 16 c-11 9 -27 17 -36 17 -20 0 -31 44 -16 59 8 8 7 11 -1 11
-7 0 -12 -3 -13 -7z"/>
<path d="M1751 778 c-1 -9 -13 -26 -27 -37 -15 -12 -22 -21 -17 -21 17 0 55
48 50 62 -4 9 -6 8 -6 -4z"/>
<path d="M2155 770 c39 -4 106 -7 150 -7 l80 0 -70 7 c-38 4 -106 7 -150 7
l-80 0 70 -7z"/>
<path d="M2028 763 c7 -3 16 -2 19 1 4 3 -2 6 -13 5 -11 0 -14 -3 -6 -6z"/>
<path d="M1884 736 c-16 -14 -46 -26 -65 -29 -33 -4 -33 -4 7 -5 33 -2 45 3
69 28 35 36 31 38 -11 6z"/>
<path d="M1578 733 c6 -2 18 -2 25 0 6 3 1 5 -13 5 -14 0 -19 -2 -12 -5z"/>
<path d="M615 710 c-12 -13 -15 -24 -9 -30 6 -6 14 1 21 20 13 35 12 37 -12
10z"/>
<path d="M1658 713 c6 -2 18 -2 25 0 6 3 1 5 -13 5 -14 0 -19 -2 -12 -5z"/>
<path d="M682 698 c-14 -14 -16 -48 -3 -48 8 0 23 51 17 57 -1 2 -8 -3 -14 -9z"/>
<path d="M1518 703 c7 -3 16 -2 19 1 4 3 -2 6 -13 5 -11 0 -14 -3 -6 -6z"/>
<path d="M1628 693 c28 -2 76 -2 105 0 28 2 5 3 -53 3 -58 0 -81 -1 -52 -3z"/>
</g>
</svg>
