<?xml version="1.0" standalone="no"?>
<!DOCTYPE svg PUBLIC "-//W3C//DTD SVG 20010904//EN"
 "http://www.w3.org/TR/2001/REC-SVG-20010904/DTD/svg10.dtd">
<svg version="1.0" xmlns="http://www.w3.org/2000/svg"
 width="1024.000000pt" height="1024.000000pt" viewBox="0 0 1024.000000 1024.000000"
 preserveAspectRatio="xMidYMid meet">

<g transform="translate(0.000000,1024.000000) scale(0.100000,-0.100000)"
fill="#000000" stroke="none">
<path d="M5195 8204 c-101 -22 -223 -84 -294 -150 -65 -60 -162 -186 -225
-294 -62 -105 -147 -288 -260 -559 -174 -415 -218 -494 -401 -727 -43 -54
-120 -151 -170 -214 -197 -250 -288 -381 -410 -595 -143 -251 -217 -367 -693
-1084 -330 -498 -362 -550 -412 -671 -59 -142 -81 -257 -87 -445 -4 -111 -1
-194 7 -240 31 -182 25 -221 -49 -298 -67 -71 -145 -97 -297 -97 -132 0 -221
16 -532 97 -251 65 -260 67 -387 67 -112 1 -140 -2 -198 -22 -125 -44 -230
-147 -278 -272 -20 -53 -39 -179 -29 -185 4 -3 54 4 111 15 343 65 577 65
1009 0 152 -23 232 -25 381 -10 91 10 386 63 395 73 2 2 -5 27 -16 55 -29 75
-25 80 19 25 21 -28 60 -64 85 -80 84 -56 201 -68 248 -26 21 18 230 328 363
536 37 59 70 105 72 103 7 -6 -150 -293 -258 -473 -54 -91 -99 -172 -99 -180
0 -37 21 -52 97 -69 93 -21 294 -24 726 -10 l287 9 -22 25 -23 24 50 -24 c28
-14 94 -36 149 -48 89 -21 104 -22 155 -11 31 7 75 16 99 21 24 4 52 16 63 27
18 17 26 18 89 10 44 -6 100 -6 152 0 45 5 102 6 127 2 69 -12 209 -10 250 2
21 6 48 19 61 29 24 18 24 18 6 63 -35 93 -114 157 -194 157 -13 0 -30 6 -38
14 -23 24 -110 29 -298 17 -368 -23 -420 -5 -72 24 242 21 256 25 256 87 0
106 -178 276 -410 393 l-66 33 -84 -94 c-46 -51 -85 -92 -87 -90 -6 6 99 166
180 276 91 123 197 247 308 363 49 50 89 93 89 93 0 1 -11 35 -24 75 -42 129
-93 228 -201 388 -57 86 -110 174 -118 196 -19 55 -29 135 -17 135 6 0 10 -9
10 -20 0 -48 47 -134 141 -259 115 -153 209 -333 279 -536 23 -66 80 -203 127
-305 47 -102 116 -255 154 -340 38 -85 98 -212 134 -281 35 -69 71 -150 79
-180 21 -81 31 -101 62 -130 39 -35 57 -44 138 -64 58 -15 94 -16 210 -11 156
8 202 22 224 68 31 66 -61 142 -223 183 -32 8 -68 15 -78 15 -13 0 -27 18 -46
62 -47 105 -185 594 -197 698 -11 96 26 539 82 990 23 189 28 212 63 290 51
112 133 366 166 515 26 112 27 131 22 290 -5 161 -24 306 -51 399 l-12 41 -14
-70 c-20 -105 -31 -121 -24 -35 8 112 30 244 74 449 22 101 40 186 40 189 0 2
-16 -8 -36 -23 -30 -23 -34 -24 -25 -8 29 55 173 168 248 195 18 7 33 15 33
18 0 3 -34 18 -75 34 -42 16 -74 31 -71 33 2 2 66 -8 141 -22 284 -52 468 -20
623 108 52 44 50 44 -23 5 -129 -67 -276 -92 -385 -64 -65 17 -100 38 -100 63
0 17 28 17 81 -3 24 -8 87 -18 139 -21 106 -6 206 13 312 61 48 21 62 34 88
78 35 61 66 155 76 228 8 62 -6 81 -86 117 -59 26 -286 103 -304 103 -6 0 -38
13 -71 29 -87 41 -142 106 -189 225 -48 120 -80 169 -160 243 -161 150 -437
224 -661 177z m360 -231 c-60 -61 -65 -83 -47 -193 9 -57 15 -165 16 -270 1
-159 -1 -182 -23 -247 -31 -95 -79 -143 -144 -143 -79 1 -206 77 -304 184 -64
70 -128 187 -161 296 -22 73 -55 240 -49 247 3 2 17 -36 32 -84 58 -187 155
-358 252 -443 63 -55 172 -119 215 -126 30 -5 38 -2 60 25 49 58 62 146 63
426 0 175 4 256 13 272 13 24 91 93 105 93 5 0 -7 -17 -28 -37z m415 -330 c3
-43 2 -95 -3 -99 -2 -2 -37 9 -78 25 l-74 29 75 35 c41 20 76 36 76 36 1 1 2
-11 4 -26z m548 -268 c-15 -33 4 -76 50 -116 31 -27 32 -30 11 -24 -37 11 -94
59 -97 83 -2 11 4 34 13 51 19 37 40 42 23 6z m-1232 -2801 c-26 -47 -72 -124
-102 -171 l-55 -85 51 -265 c28 -146 49 -267 47 -269 -4 -4 -92 305 -144 506
-36 137 -38 254 -5 320 12 25 20 36 17 26 -21 -74 -14 -181 15 -226 14 -22 75
41 152 160 34 54 65 96 67 94 2 -2 -18 -42 -43 -90z m-1462 -305 c153 -57 221
-221 181 -434 -45 -241 -205 -546 -481 -917 -41 -55 -74 -103 -74 -108 0 -5
10 -15 23 -22 17 -10 85 -12 285 -10 286 2 356 -6 456 -51 60 -28 122 -80 149
-126 14 -23 5 -18 -35 23 -105 104 -232 128 -534 101 -269 -24 -369 -12 -400
47 -22 42 -11 66 109 236 384 545 524 911 423 1109 -30 60 -57 86 -121 115
-44 20 -65 23 -175 23 -83 -1 -144 -6 -182 -17 -61 -17 -78 -15 -30 3 131 51
312 64 406 28z"/>
<path d="M6015 6636 c7 -77 32 -132 81 -178 24 -24 33 -38 24 -39 -8 0 -1 -7
15 -14 40 -19 112 -18 208 0 101 19 160 19 199 -1 l31 -16 -7 33 c-3 20 -20
47 -40 66 -37 35 -42 36 -247 52 -166 13 -215 36 -254 121 l-16 35 6 -59z"/>
<path d="M7005 6615 c-38 -7 -81 -17 -95 -22 -14 -5 -36 -6 -50 -2 -14 4 -51
7 -83 8 -117 2 -180 -59 -197 -193 -16 -128 -61 -203 -152 -255 -45 -26 -47
-29 -26 -35 65 -17 169 8 210 51 15 16 44 69 65 118 53 122 85 169 141 210 81
59 193 96 367 119 l100 14 -105 0 c-58 0 -136 -6 -175 -13z m-165 -80 c0 -8
-4 -15 -9 -15 -13 0 -22 16 -14 24 11 11 23 6 23 -9z"/>
<path d="M6885 6523 c-88 -47 -129 -100 -195 -253 -45 -103 -65 -129 -124
-157 l-51 -24 63 6 c75 6 126 30 175 84 44 49 55 70 101 194 21 54 46 113 58
132 22 39 17 42 -27 18z"/>
<path d="M6410 6403 c-47 -8 -125 -36 -210 -76 -142 -66 -274 -63 -360 10 -36
30 -37 26 -5 -37 15 -29 43 -63 65 -79 47 -34 127 -56 176 -48 19 3 34 2 34
-4 0 -5 -4 -9 -10 -9 -5 0 -10 -4 -10 -9 0 -12 85 -23 167 -23 131 1 228 55
277 154 36 72 34 96 -9 114 -33 14 -64 16 -115 7z"/>
<path d="M6328 6083 c-18 -20 -35 -68 -22 -60 5 3 8 -16 7 -41 l-3 -47 13 50
c16 64 22 72 61 96 l31 19 -36 0 c-22 0 -42 -7 -51 -17z"/>
<path d="M6433 6089 c-42 -12 -80 -59 -88 -109 -9 -53 2 -132 23 -160 35 -47
92 -104 85 -86 -6 18 -4 18 23 -2 16 -12 45 -25 64 -28 l35 -6 -37 31 c-41 35
-73 96 -83 157 -5 33 5 107 27 193 4 18 -10 21 -49 10z"/>
<path d="M7082 5712 c-106 -85 -110 -89 -137 -160 -53 -138 -37 -57 31 157 10
32 11 47 3 52 -6 3 -66 -27 -132 -69 -66 -41 -181 -110 -255 -153 -168 -99
-249 -163 -323 -256 -148 -187 -176 -371 -84 -557 38 -76 18 -68 -30 13 -17
28 -33 51 -37 51 -13 0 -104 -85 -139 -130 -19 -25 -82 -91 -141 -148 -410
-396 -541 -855 -372 -1297 131 -340 352 -537 696 -620 520 -124 1208 -170
1401 -93 41 16 59 55 42 95 -10 24 -26 36 -72 54 -52 21 -74 23 -218 23 -88 0
-218 -2 -290 -4 -100 -3 -143 0 -185 13 -59 17 -108 58 -111 92 -5 51 6 68
104 168 128 129 195 217 249 325 36 72 42 93 46 165 4 70 1 91 -18 134 -26 62
-105 140 -178 177 -29 15 -52 28 -52 30 0 2 20 45 44 97 74 160 115 303 116
401 l0 47 -47 7 c-93 13 -81 19 40 19 90 0 138 5 182 18 111 34 190 111 217
210 11 41 9 46 -25 108 -42 76 -67 191 -67 313 0 142 -75 310 -175 392 l-43
35 30 69 c58 139 85 291 54 303 -9 4 -59 -29 -124 -81z m132 -864 c20 -28 20
-44 0 -52 -30 -12 -85 39 -69 64 11 18 54 10 69 -12z m-37 -225 c14 -5 -20 -8
-90 -8 -88 0 -119 -4 -147 -18 -29 -15 -32 -15 -19 -2 30 31 90 46 164 41 39
-2 80 -8 92 -13z m238 -13 c0 -22 -5 -25 -38 -28 -39 -3 -55 13 -43 44 4 11
17 14 43 12 33 -3 38 -6 38 -28z m-245 -37 c-105 -9 -196 -41 -250 -86 -14
-12 -9 -4 11 17 47 49 122 76 209 74 36 -1 49 -3 30 -5z m-5 -54 c-72 -11
-122 -26 -155 -49 -46 -31 -55 -32 -20 0 43 38 107 59 180 58 l55 0 -60 -9z
m-575 -863 c0 -3 -28 -20 -62 -38 -74 -39 -187 -142 -221 -201 -46 -80 -60
-141 -54 -241 3 -50 8 -102 12 -116 3 -14 -4 0 -16 30 -13 35 -23 89 -26 145
-4 76 -2 99 17 148 40 107 158 207 307 262 47 17 43 16 43 11z"/>
<path d="M8107 4753 c5 -44 1 -62 -22 -109 -33 -68 -79 -103 -207 -159 -56
-24 -99 -50 -111 -67 -27 -36 -24 -105 8 -175 14 -31 25 -58 25 -60 0 -3 -14
7 -31 21 -62 53 -92 48 -184 -30 -35 -30 -74 -58 -86 -63 l-23 -8 24 -13 c69
-37 207 -19 322 42 111 59 259 226 309 350 34 81 32 196 -3 268 l-26 55 5 -52z"/>
<path d="M7930 4180 c-36 -27 -92 -63 -125 -80 -33 -17 -49 -28 -35 -25 35 10
148 78 195 120 57 49 41 43 -35 -15z"/>
<path d="M8122 4138 c-7 -7 -12 -39 -12 -74 l0 -61 64 -32 c93 -46 186 -152
210 -241 4 -14 -7 0 -24 30 -63 112 -192 211 -278 214 -36 1 -37 0 -40 -39 -5
-57 15 -142 48 -200 32 -55 112 -137 175 -179 58 -38 30 -32 -38 9 -42 25 -70
35 -101 35 -23 0 -76 9 -117 20 -148 40 -216 52 -299 52 -155 1 -283 -49 -397
-156 -136 -127 -184 -316 -122 -480 22 -59 17 -74 -7 -22 -10 20 -24 36 -32
36 -8 0 -29 -16 -47 -36 -34 -37 -57 -41 -107 -19 -50 21 28 -89 87 -123 36
-20 48 -22 116 -16 85 7 114 -2 124 -38 19 -60 38 -86 78 -104 37 -17 68 -19
293 -19 259 0 284 4 284 42 0 21 -78 53 -115 47 -25 -5 -22 -1 20 21 67 36 75
44 96 90 17 39 15 91 -5 124 -4 6 -5 11 -2 11 3 0 13 -14 22 -32 21 -41 14
-110 -16 -150 -17 -24 -19 -32 -9 -38 21 -14 125 -22 192 -16 41 3 53 2 37 -3
-14 -5 -40 -9 -58 -10 -51 -2 -29 -18 48 -35 121 -28 323 -15 337 20 9 24 -34
60 -95 80 -31 10 -59 19 -61 21 -2 1 22 26 53 54 69 63 97 114 103 190 l6 57
-61 31 c-75 38 -92 59 -20 26 62 -29 105 -31 156 -8 20 9 50 18 66 20 16 2 40
10 52 18 40 26 46 48 35 132 -22 172 -72 256 -190 315 -40 20 -90 39 -111 43
-34 6 -38 10 -55 63 -43 138 -121 252 -213 311 -56 35 -54 35 -70 19z m506
-714 c6 -41 -70 -36 -81 6 -5 19 -2 21 36 18 34 -2 43 -7 45 -24z"/>
</g>
</svg>
