<?xml version="1.0" encoding="UTF-8"?>
<!DOCTYPE svg PUBLIC "-//W3C//DTD SVG 1.1//EN" "http://www.w3.org/Graphics/SVG/1.1/DTD/svg11.dtd">
<svg xmlns="http://www.w3.org/2000/svg" version="1.1" width="2677px" height="1635px" style="shape-rendering:geometricPrecision; text-rendering:geometricPrecision; image-rendering:optimizeQuality; fill-rule:evenodd; clip-rule:evenodd" xmlns:xlink="http://www.w3.org/1999/xlink">
<g><path style="opacity:1" fill="#fefefe" d="M -0.5,-0.5 C 891.833,-0.5 1784.17,-0.5 2676.5,-0.5C 2676.5,544.5 2676.5,1089.5 2676.5,1634.5C 2473.5,1634.5 2270.5,1634.5 2067.5,1634.5C 2100.62,1570.92 2135.78,1508.59 2173,1447.5C 2214.23,1385.79 2272.06,1352.29 2346.5,1347C 2393.83,1346.67 2441.17,1346.33 2488.5,1346C 2525.04,1339.81 2550.88,1319.65 2566,1285.5C 2569.18,1278.47 2570.18,1271.14 2569,1263.5C 2566.77,1258.27 2562.94,1254.77 2557.5,1253C 2597.11,1239.44 2625.61,1213.61 2643,1175.5C 2651.31,1157.94 2655.81,1139.44 2656.5,1120C 2655,1090.66 2641.33,1069 2615.5,1055C 2576.45,1039.48 2539.78,1019.81 2505.5,996C 2497.5,989.333 2489.5,982.667 2481.5,976C 2447.64,944.3 2413.97,912.467 2380.5,880.5C 2396.18,848.146 2412.68,816.146 2430,784.5C 2439.29,773.871 2449.79,764.704 2461.5,757C 2469.5,749.667 2477.5,742.333 2485.5,735C 2498.02,722.118 2505.86,706.951 2509,689.5C 2507.94,686.438 2506.11,683.938 2503.5,682C 2482.2,672.016 2460.86,662.016 2439.5,652C 2422.85,647.309 2405.85,645.142 2388.5,645.5C 2400.47,622.531 2400.47,599.531 2388.5,576.5C 2387.83,576.167 2387.17,575.833 2386.5,575.5C 2366.59,585.635 2354.09,601.635 2349,623.5C 2352.98,676.453 2329.82,710.619 2279.5,726C 2263.54,731.024 2247.54,735.857 2231.5,740.5C 2218.12,728.455 2205.12,716.122 2192.5,703.5C 2216.43,662.864 2230.26,618.864 2234,571.5C 2238.13,527.331 2226.46,487.998 2199,453.5C 2166.61,421.266 2128.44,411.766 2084.5,425C 2077.24,427.965 2070.24,431.465 2063.5,435.5C 2060.69,435.174 2058.02,434.341 2055.5,433C 2052,432.833 2048.5,432.667 2045,432.5C 2040.01,432.298 2035.18,432.965 2030.5,434.5C 2030.17,434.167 2029.83,433.833 2029.5,433.5C 2040.2,412.637 2035.53,396.303 2015.5,384.5C 1993.57,377.55 1978.07,384.55 1969,405.5C 1966.37,420.621 1971.04,432.954 1983,442.5C 1983.48,443.448 1983.65,444.448 1983.5,445.5C 1971.11,445.894 1958.78,445.394 1946.5,444C 1939.44,442.153 1932.44,440.153 1925.5,438C 1901.38,427.749 1877.71,416.749 1854.5,405C 1846.93,402.187 1839.26,399.52 1831.5,397C 1777.3,384.393 1734.13,400.559 1702,445.5C 1698.06,453.045 1694.39,460.712 1691,468.5C 1689,473.659 1687.83,478.992 1687.5,484.5C 1670.81,466.158 1651.81,450.658 1630.5,438C 1578.84,409.84 1527.51,381.174 1476.5,352C 1449.16,337.225 1427.32,343.059 1411,369.5C 1409.12,374.854 1407.95,380.354 1407.5,386C 1408.72,395.257 1410.38,404.424 1412.5,413.5C 1360.36,504.435 1307.7,595.101 1254.5,685.5C 1186.45,663.825 1118.11,662.992 1049.5,683C 928.294,676.086 832.127,721.252 761,818.5C 739.383,851.388 723.55,886.721 713.5,924.5C 687.195,901.36 659.862,879.527 631.5,859C 615.915,850.532 599.249,847.532 581.5,850C 543.902,862.363 527.402,888.197 532,927.5C 538.171,951.009 550.338,970.842 568.5,987C 575.69,992.698 582.69,998.531 589.5,1004.5C 585.418,1004.34 581.418,1004.84 577.5,1006C 571.736,1009.22 565.736,1011.88 559.5,1014C 555.598,1014.74 551.932,1014.07 548.5,1012C 542.833,1005 536.5,998.667 529.5,993C 520.252,988.094 511.252,988.428 502.5,994C 492.316,1002.51 481.316,1009.84 469.5,1016C 464.777,1016.62 460.11,1016.29 455.5,1015C 447.729,1011.11 439.729,1007.78 431.5,1005C 422.617,1003.69 415.784,1006.86 411,1014.5C 407.064,1023.23 401.564,1030.73 394.5,1037C 390.346,1039.43 385.846,1040.6 381,1040.5C 375.082,1039.95 369.249,1038.95 363.5,1037.5C 359.583,1037.73 355.916,1038.73 352.5,1040.5C 322.557,999.09 283.557,987.59 235.5,1006C 209.039,1020.07 193.206,1041.91 188,1071.5C 184.651,1107.62 180.318,1143.62 175,1179.5C 165.034,1222.87 142.867,1258.7 108.5,1287C 72.287,1312.72 35.9537,1338.22 -0.5,1363.5C -0.5,908.833 -0.5,454.167 -0.5,-0.5 Z"/></g>
<g><path style="opacity:1" fill="#fce1ab" d="M 2063.5,435.5 C 2089.88,454.017 2116.22,472.85 2142.5,492C 2143.61,494.737 2143.78,497.571 2143,500.5C 2137.81,506.85 2131.31,511.35 2123.5,514C 2092.44,526.179 2061.77,539.012 2031.5,552.5C 2015.07,538.24 1999.07,523.406 1983.5,508C 1935.67,470.057 1882.67,460.724 1824.5,480C 1812.07,485.048 1800.4,491.381 1789.5,499C 1768.31,515.026 1746.97,530.859 1725.5,546.5C 1715.86,523.876 1703.2,503.209 1687.5,484.5C 1687.83,478.992 1689,473.659 1691,468.5C 1694.39,460.712 1698.06,453.045 1702,445.5C 1734.13,400.559 1777.3,384.393 1831.5,397C 1839.26,399.52 1846.93,402.187 1854.5,405C 1877.71,416.749 1901.38,427.749 1925.5,438C 1932.44,440.153 1939.44,442.153 1946.5,444C 1958.78,445.394 1971.11,445.894 1983.5,445.5C 1983.65,444.448 1983.48,443.448 1983,442.5C 1971.04,432.954 1966.37,420.621 1969,405.5C 1978.07,384.55 1993.57,377.55 2015.5,384.5C 2035.53,396.303 2040.2,412.637 2029.5,433.5C 2029.83,433.833 2030.17,434.167 2030.5,434.5C 2035.18,432.965 2040.01,432.298 2045,432.5C 2048.5,432.667 2052,432.833 2055.5,433C 2058.02,434.341 2060.69,435.174 2063.5,435.5 Z"/></g>
<g><path style="opacity:1" fill="#ec6059" d="M 1461.5,511.5 C 1461.17,521.522 1461.5,531.522 1462.5,541.5C 1463.11,541.376 1463.44,541.043 1463.5,540.5C 1488.66,501.528 1513.82,462.528 1539,423.5C 1552.28,412.572 1565.28,412.906 1578,424.5C 1580.77,428.035 1582.43,432.035 1583,436.5C 1585.12,530.847 1587.62,625.18 1590.5,719.5C 1610.8,722.228 1631.13,724.728 1651.5,727C 1677.62,731.803 1698.78,744.636 1715,765.5C 1724.71,783.193 1734.38,800.86 1744,818.5C 1752.82,829.975 1763.99,838.475 1777.5,844C 1872.8,867.434 1968.13,890.434 2063.5,913C 2088.06,918.97 2099.22,934.47 2097,959.5C 2093.55,970.543 2088.21,980.543 2081,989.5C 2074.67,995.833 2068.33,1002.17 2062,1008.5C 2046.73,1036.76 2031.07,1064.76 2015,1092.5C 1991.1,1124.35 1959.27,1142.85 1919.5,1148C 1867.4,1156.02 1815.4,1164.69 1763.5,1174C 1709.53,1184.66 1669.03,1213.83 1642,1261.5C 1634.66,1275.17 1628.16,1289.17 1622.5,1303.5C 1621.17,1303.5 1619.83,1303.5 1618.5,1303.5C 1609.57,1302.06 1600.57,1301.4 1591.5,1301.5C 1573.31,1302.11 1555.15,1303.11 1537,1304.5C 1523.96,1304.02 1511.13,1302.18 1498.5,1299C 1476.98,1291.54 1455.32,1284.54 1433.5,1278C 1431.19,1277.5 1428.86,1277.34 1426.5,1277.5C 1424.93,1267.7 1424.43,1257.7 1425,1247.5C 1426.06,1244.38 1427.39,1241.38 1429,1238.5C 1435.07,1231.36 1440.41,1223.69 1445,1215.5C 1446.36,1209.99 1445.19,1205.15 1441.5,1201C 1444.01,1198.49 1446.51,1195.99 1449,1193.5C 1452.33,1187.5 1452.33,1181.5 1449,1175.5C 1440.97,1163.12 1433.3,1150.45 1426,1137.5C 1424.57,1131.18 1426.41,1126.02 1431.5,1122C 1449.44,1115.01 1456.94,1101.84 1454,1082.5C 1452.23,1076.45 1449.06,1071.28 1444.5,1067C 1425.37,1057.2 1407.87,1045.03 1392,1030.5C 1376.75,1013.76 1370.09,994.091 1372,971.5C 1384.99,923.377 1384.66,875.377 1371,827.5C 1365.97,813.118 1360.14,799.118 1353.5,785.5C 1360.81,784.531 1368.14,784.364 1375.5,785C 1382.26,785.888 1388.92,786.888 1395.5,788C 1358.04,740.614 1311.04,706.448 1254.5,685.5C 1307.7,595.101 1360.36,504.435 1412.5,413.5C 1424.39,398.016 1438.22,396.349 1454,408.5C 1456.88,412.049 1458.88,416.049 1460,420.5C 1460.9,450.828 1461.4,481.161 1461.5,511.5 Z"/></g>
<g><path style="opacity:1" fill="#3c3c3c" d="M 1687.5,484.5 C 1703.2,503.209 1715.86,523.876 1725.5,546.5C 1746.97,530.859 1768.31,515.026 1789.5,499C 1800.4,491.381 1812.07,485.048 1824.5,480C 1882.67,460.724 1935.67,470.057 1983.5,508C 1999.07,523.406 2015.07,538.24 2031.5,552.5C 2074.6,593.101 2117.6,633.935 2160.5,675C 2171.34,684.337 2182,693.837 2192.5,703.5C 2205.12,716.122 2218.12,728.455 2231.5,740.5C 2280.98,786.971 2330.65,833.638 2380.5,880.5C 2413.97,912.467 2447.64,944.3 2481.5,976C 2489.5,982.667 2497.5,989.333 2505.5,996C 2539.78,1019.81 2576.45,1039.48 2615.5,1055C 2641.33,1069 2655,1090.66 2656.5,1120C 2655.81,1139.44 2651.31,1157.94 2643,1175.5C 2625.61,1213.61 2597.11,1239.44 2557.5,1253C 2562.94,1254.77 2566.77,1258.27 2569,1263.5C 2570.18,1271.14 2569.18,1278.47 2566,1285.5C 2550.88,1319.65 2525.04,1339.81 2488.5,1346C 2441.17,1346.33 2393.83,1346.67 2346.5,1347C 2272.06,1352.29 2214.23,1385.79 2173,1447.5C 2135.78,1508.59 2100.62,1570.92 2067.5,1634.5C 2066.83,1634.5 2066.17,1634.5 2065.5,1634.5C 1968.66,1634.17 1872,1633.17 1775.5,1631.5C 1793.09,1590.6 1804.59,1547.94 1810,1503.5C 1810.67,1491.17 1810.67,1478.83 1810,1466.5C 1807.91,1452.12 1805.58,1437.79 1803,1423.5C 1800.51,1401.95 1804.18,1381.62 1814,1362.5C 1820.92,1352.34 1827.58,1342 1834,1331.5C 1845.22,1295.44 1833.72,1269.61 1799.5,1254C 1774.48,1246.38 1753.31,1252.21 1736,1271.5C 1714.8,1299.57 1700.3,1330.91 1692.5,1365.5C 1681.09,1350.51 1669.09,1336.01 1656.5,1322C 1645.24,1312.87 1632.57,1306.7 1618.5,1303.5C 1619.83,1303.5 1621.17,1303.5 1622.5,1303.5C 1628.16,1289.17 1634.66,1275.17 1642,1261.5C 1669.03,1213.83 1709.53,1184.66 1763.5,1174C 1815.4,1164.69 1867.4,1156.02 1919.5,1148C 1959.27,1142.85 1991.1,1124.35 2015,1092.5C 2031.07,1064.76 2046.73,1036.76 2062,1008.5C 2068.33,1002.17 2074.67,995.833 2081,989.5C 2088.21,980.543 2093.55,970.543 2097,959.5C 2099.22,934.47 2088.06,918.97 2063.5,913C 1968.13,890.434 1872.8,867.434 1777.5,844C 1763.99,838.475 1752.82,829.975 1744,818.5C 1734.38,800.86 1724.71,783.193 1715,765.5C 1698.78,744.636 1677.62,731.803 1651.5,727C 1631.13,724.728 1610.8,722.228 1590.5,719.5C 1587.62,625.18 1585.12,530.847 1583,436.5C 1582.43,432.035 1580.77,428.035 1578,424.5C 1565.28,412.906 1552.28,412.572 1539,423.5C 1513.82,462.528 1488.66,501.528 1463.5,540.5C 1462.83,530.833 1462.17,521.167 1461.5,511.5C 1461.4,481.161 1460.9,450.828 1460,420.5C 1458.88,416.049 1456.88,412.049 1454,408.5C 1438.22,396.349 1424.39,398.016 1412.5,413.5C 1410.38,404.424 1408.72,395.257 1407.5,386C 1407.95,380.354 1409.12,374.854 1411,369.5C 1427.32,343.059 1449.16,337.225 1476.5,352C 1527.51,381.174 1578.84,409.84 1630.5,438C 1651.81,450.658 1670.81,466.158 1687.5,484.5 Z"/></g>
<g><path style="opacity:1" fill="#ad7f67" d="M 2192.5,703.5 C 2182,693.837 2171.34,684.337 2160.5,675C 2117.6,633.935 2074.6,593.101 2031.5,552.5C 2061.77,539.012 2092.44,526.179 2123.5,514C 2131.31,511.35 2137.81,506.85 2143,500.5C 2143.78,497.571 2143.61,494.737 2142.5,492C 2116.22,472.85 2089.88,454.017 2063.5,435.5C 2070.24,431.465 2077.24,427.965 2084.5,425C 2128.44,411.766 2166.61,421.266 2199,453.5C 2226.46,487.998 2238.13,527.331 2234,571.5C 2230.26,618.864 2216.43,662.864 2192.5,703.5 Z"/></g>
<g><path style="opacity:1" fill="#fefdfa" d="M 2057.5,455.5 C 2068.48,454.652 2072.98,459.652 2071,470.5C 2064.41,477.157 2058.24,476.99 2052.5,470C 2050.13,463.666 2051.79,458.833 2057.5,455.5 Z"/></g>
<g><path style="opacity:1" fill="#804b44" d="M 1461.5,511.5 C 1462.17,521.167 1462.83,530.833 1463.5,540.5C 1463.44,541.043 1463.11,541.376 1462.5,541.5C 1461.5,531.522 1461.17,521.522 1461.5,511.5 Z"/></g>
<g><path style="opacity:1" fill="#ad7f67" d="M 2380.5,880.5 C 2330.65,833.638 2280.98,786.971 2231.5,740.5C 2247.54,735.857 2263.54,731.024 2279.5,726C 2329.82,710.619 2352.98,676.453 2349,623.5C 2354.09,601.635 2366.59,585.635 2386.5,575.5C 2387.17,575.833 2387.83,576.167 2388.5,576.5C 2400.47,599.531 2400.47,622.531 2388.5,645.5C 2405.85,645.142 2422.85,647.309 2439.5,652C 2460.86,662.016 2482.2,672.016 2503.5,682C 2506.11,683.938 2507.94,686.438 2509,689.5C 2505.86,706.951 2498.02,722.118 2485.5,735C 2477.5,742.333 2469.5,749.667 2461.5,757C 2449.79,764.704 2439.29,773.871 2430,784.5C 2412.68,816.146 2396.18,848.146 2380.5,880.5 Z"/></g>
<g><path style="opacity:1" fill="#cfcecc" d="M 1254.5,685.5 C 1311.04,706.448 1358.04,740.614 1395.5,788C 1388.92,786.888 1382.26,785.888 1375.5,785C 1368.14,784.364 1360.81,784.531 1353.5,785.5C 1360.14,799.118 1365.97,813.118 1371,827.5C 1384.66,875.377 1384.99,923.377 1372,971.5C 1370.09,994.091 1376.75,1013.76 1392,1030.5C 1407.87,1045.03 1425.37,1057.2 1444.5,1067C 1449.06,1071.28 1452.23,1076.45 1454,1082.5C 1456.94,1101.84 1449.44,1115.01 1431.5,1122C 1426.41,1126.02 1424.57,1131.18 1426,1137.5C 1433.3,1150.45 1440.97,1163.12 1449,1175.5C 1452.33,1181.5 1452.33,1187.5 1449,1193.5C 1446.51,1195.99 1444.01,1198.49 1441.5,1201C 1445.19,1205.15 1446.36,1209.99 1445,1215.5C 1440.41,1223.69 1435.07,1231.36 1429,1238.5C 1427.39,1241.38 1426.06,1244.38 1425,1247.5C 1424.43,1257.7 1424.93,1267.7 1426.5,1277.5C 1427.18,1292.78 1424.01,1307.11 1417,1320.5C 1412.16,1326.33 1406.33,1330.83 1399.5,1334C 1362.77,1340.68 1326.1,1347.68 1289.5,1355C 1248.59,1366.24 1222.76,1392.41 1212,1433.5C 1206.88,1464.86 1203.05,1496.36 1200.5,1528C 1201.22,1565.65 1210.22,1601.15 1227.5,1634.5C 1122.5,1634.5 1017.5,1634.5 912.5,1634.5C 912.5,1634.17 912.5,1633.83 912.5,1633.5C 939.37,1569.04 965.537,1504.37 991,1439.5C 992.73,1431.98 995.063,1424.64 998,1417.5C 1005.13,1371.4 1012.46,1325.4 1020,1279.5C 1026.29,1259.2 1037.46,1242.03 1053.5,1228C 1091.78,1200.05 1129.78,1171.72 1167.5,1143C 1189.38,1118.18 1194.88,1090.01 1184,1058.5C 1181.47,1051.77 1178.13,1045.43 1174,1039.5C 1178.73,1011.23 1166.9,995.062 1138.5,991C 1124.15,990.681 1109.82,990.181 1095.5,989.5C 1077.02,988.005 1058.35,987.338 1039.5,987.5C 1013.84,986.508 988.174,986.342 962.5,987C 946.956,989.549 932.29,994.549 918.5,1002C 903.833,1011.67 889.167,1021.33 874.5,1031C 862.657,1035.17 851.324,1034.17 840.5,1028C 796.817,995.15 754.484,960.65 713.5,924.5C 723.55,886.721 739.383,851.388 761,818.5C 832.127,721.252 928.294,676.086 1049.5,683C 1118.11,662.992 1186.45,663.825 1254.5,685.5 Z"/></g>
<g><path style="opacity:1" fill="#fbf9f8" d="M 2431.5,669.5 C 2444.23,669.396 2448.73,675.396 2445,687.5C 2438.67,694.167 2432.33,694.167 2426,687.5C 2422.7,679.789 2424.53,673.789 2431.5,669.5 Z"/></g>
<g><path style="opacity:1" fill="#fcfcfc" d="M 2133.5,737.5 C 2152.18,736.43 2167.35,743.097 2179,757.5C 2188.65,773.918 2188.98,790.585 2180,807.5C 2164.18,828.343 2144.02,833.843 2119.5,824C 2101.6,812.369 2093.77,795.869 2096,774.5C 2101.75,755.246 2114.25,742.913 2133.5,737.5 Z"/></g>
<g><path style="opacity:1" fill="#fefcfc" d="M 1633.5,804.5 C 1652.37,803.009 1665.2,811.009 1672,828.5C 1675.17,849.014 1667,862.514 1647.5,869C 1620.71,870.876 1607.54,858.376 1608,831.5C 1611.59,817.75 1620.09,808.75 1633.5,804.5 Z"/></g>
<g><path style="opacity:1" fill="#415ba5" d="M 713.5,924.5 C 754.484,960.65 796.817,995.15 840.5,1028C 851.324,1034.17 862.657,1035.17 874.5,1031C 889.167,1021.33 903.833,1011.67 918.5,1002C 932.29,994.549 946.956,989.549 962.5,987C 988.174,986.342 1013.84,986.508 1039.5,987.5C 1057.98,988.995 1076.65,989.662 1095.5,989.5C 1109.82,990.181 1124.15,990.681 1138.5,991C 1166.9,995.062 1178.73,1011.23 1174,1039.5C 1178.13,1045.43 1181.47,1051.77 1184,1058.5C 1194.88,1090.01 1189.38,1118.18 1167.5,1143C 1129.78,1171.72 1091.78,1200.05 1053.5,1228C 1037.46,1242.03 1026.29,1259.2 1020,1279.5C 1012.46,1325.4 1005.13,1371.4 998,1417.5C 995.063,1424.64 992.73,1431.98 991,1439.5C 965.537,1504.37 939.37,1569.04 912.5,1633.5C 692.666,1633.83 472.999,1633.5 253.5,1632.5C 325.357,1562.4 362.024,1476.73 363.5,1375.5C 362.665,1354.15 361.498,1332.82 360,1311.5C 357.778,1297.05 354.944,1282.72 351.5,1268.5C 368.848,1263.39 386.515,1259.72 404.5,1257.5C 411.037,1257.41 417.37,1256.75 423.5,1255.5C 437.994,1254.34 452.661,1254.17 467.5,1255C 511.007,1260.74 554.673,1264.58 598.5,1266.5C 623.701,1266.5 648.701,1264.33 673.5,1260C 692.705,1255.4 710.038,1247.06 725.5,1235C 752.679,1212.45 774.512,1185.62 791,1154.5C 796.272,1144.29 801.272,1133.96 806,1123.5C 807.574,1117.4 805.74,1112.56 800.5,1109C 768.862,1103.76 738.195,1095.09 708.5,1083C 696.21,1076.85 684.21,1070.19 672.5,1063C 644.931,1043.25 617.264,1023.75 589.5,1004.5C 582.69,998.531 575.69,992.698 568.5,987C 550.338,970.842 538.171,951.009 532,927.5C 527.402,888.197 543.902,862.363 581.5,850C 599.249,847.532 615.915,850.532 631.5,859C 659.862,879.527 687.195,901.36 713.5,924.5 Z"/></g>
<g><path style="opacity:1" fill="#fdfdfd" d="M 1314.5,971.5 C 1332.34,972.499 1340.17,981.832 1338,999.5C 1330.36,1013.87 1319.19,1017.37 1304.5,1010C 1293.9,998.69 1293.9,987.357 1304.5,976C 1307.56,973.63 1310.9,972.13 1314.5,971.5 Z"/></g>
<g><path style="opacity:1" fill="#a3abc3" d="M 1039.5,987.5 C 1058.35,987.338 1077.02,988.005 1095.5,989.5C 1076.65,989.662 1057.98,988.995 1039.5,987.5 Z"/></g>
<g><path style="opacity:1" fill="#f9b12e" d="M 589.5,1004.5 C 617.264,1023.75 644.931,1043.25 672.5,1063C 684.21,1070.19 696.21,1076.85 708.5,1083C 738.195,1095.09 768.862,1103.76 800.5,1109C 805.74,1112.56 807.574,1117.4 806,1123.5C 801.272,1133.96 796.272,1144.29 791,1154.5C 774.512,1185.62 752.679,1212.45 725.5,1235C 710.038,1247.06 692.705,1255.4 673.5,1260C 648.701,1264.33 623.701,1266.5 598.5,1266.5C 554.673,1264.58 511.007,1260.74 467.5,1255C 452.661,1254.17 437.994,1254.34 423.5,1255.5C 416.938,1255.34 410.605,1256 404.5,1257.5C 386.515,1259.72 368.848,1263.39 351.5,1268.5C 343.341,1231.22 334.841,1193.89 326,1156.5C 322.233,1132.19 331.733,1115.69 354.5,1107C 361.5,1106.33 368.5,1106.33 375.5,1107C 386.544,1109.44 397.544,1111.94 408.5,1114.5C 412.589,1114.91 414.589,1113.08 414.5,1109C 412.613,1103.06 409.78,1097.56 406,1092.5C 394.718,1080.88 382.552,1070.38 369.5,1061C 363.245,1054.58 357.578,1047.75 352.5,1040.5C 355.916,1038.73 359.583,1037.73 363.5,1037.5C 369.249,1038.95 375.082,1039.95 381,1040.5C 385.846,1040.6 390.346,1039.43 394.5,1037C 401.564,1030.73 407.064,1023.23 411,1014.5C 415.784,1006.86 422.617,1003.69 431.5,1005C 439.729,1007.78 447.729,1011.11 455.5,1015C 460.11,1016.29 464.777,1016.62 469.5,1016C 481.316,1009.84 492.316,1002.51 502.5,994C 511.252,988.428 520.252,988.094 529.5,993C 536.5,998.667 542.833,1005 548.5,1012C 551.932,1014.07 555.598,1014.74 559.5,1014C 565.736,1011.88 571.736,1009.22 577.5,1006C 581.418,1004.84 585.418,1004.34 589.5,1004.5 Z"/></g>
<g><path style="opacity:1" fill="#bba2c8" d="M 352.5,1040.5 C 357.578,1047.75 363.245,1054.58 369.5,1061C 382.552,1070.38 394.718,1080.88 406,1092.5C 409.78,1097.56 412.613,1103.06 414.5,1109C 414.589,1113.08 412.589,1114.91 408.5,1114.5C 397.544,1111.94 386.544,1109.44 375.5,1107C 368.5,1106.33 361.5,1106.33 354.5,1107C 331.733,1115.69 322.233,1132.19 326,1156.5C 334.841,1193.89 343.341,1231.22 351.5,1268.5C 354.944,1282.72 357.778,1297.05 360,1311.5C 361.498,1332.82 362.665,1354.15 363.5,1375.5C 362.024,1476.73 325.357,1562.4 253.5,1632.5C 252.5,1632.83 251.833,1633.5 251.5,1634.5C 167.5,1634.5 83.5,1634.5 -0.5,1634.5C -0.5,1544.17 -0.5,1453.83 -0.5,1363.5C 35.9537,1338.22 72.287,1312.72 108.5,1287C 142.867,1258.7 165.034,1222.87 175,1179.5C 180.318,1143.62 184.651,1107.62 188,1071.5C 193.206,1041.91 209.039,1020.07 235.5,1006C 283.557,987.59 322.557,999.09 352.5,1040.5 Z"/></g>
<g><path style="opacity:1" fill="#fcfcfd" d="M 975.5,1022.5 C 990.183,1021.7 1000.35,1028.03 1006,1041.5C 1007.67,1065.49 996.507,1076.33 972.5,1074C 954.43,1065.12 949.93,1051.62 959,1033.5C 963.639,1028.33 969.139,1024.66 975.5,1022.5 Z"/></g>
<g><path style="opacity:1" fill="#fcfbfc" d="M 289.5,1053.5 C 303.059,1053.21 308.226,1059.55 305,1072.5C 300.356,1079.61 294.189,1081.27 286.5,1077.5C 277.732,1068.13 278.732,1060.13 289.5,1053.5 Z"/></g>
<g><path style="opacity:1" fill="#fefcf9" d="M 708.5,1113.5 C 724.839,1112.33 731.339,1119.66 728,1135.5C 721.622,1144.29 713.789,1145.79 704.5,1140C 696.839,1129.78 698.172,1120.95 708.5,1113.5 Z"/></g>
<g><path style="opacity:1" fill="#5b8772" d="M 1775.5,1631.5 C 1774.6,1632.21 1774.26,1633.21 1774.5,1634.5C 1724.17,1634.5 1673.83,1634.5 1623.5,1634.5C 1653.38,1600.1 1675.55,1561.1 1690,1517.5C 1692.46,1509 1693.62,1500.34 1693.5,1491.5C 1691.53,1474.16 1689.37,1456.83 1687,1439.5C 1685.07,1414.48 1686.91,1389.82 1692.5,1365.5C 1700.3,1330.91 1714.8,1299.57 1736,1271.5C 1753.31,1252.21 1774.48,1246.38 1799.5,1254C 1833.72,1269.61 1845.22,1295.44 1834,1331.5C 1827.58,1342 1820.92,1352.34 1814,1362.5C 1804.18,1381.62 1800.51,1401.95 1803,1423.5C 1805.58,1437.79 1807.91,1452.12 1810,1466.5C 1810.67,1478.83 1810.67,1491.17 1810,1503.5C 1804.59,1547.94 1793.09,1590.6 1775.5,1631.5 Z"/></g>
<g><path style="opacity:1" fill="#6d6c8d" d="M 423.5,1255.5 C 417.37,1256.75 411.037,1257.41 404.5,1257.5C 410.605,1256 416.938,1255.34 423.5,1255.5 Z"/></g>
<g><path style="opacity:1" fill="#186055" d="M 1426.5,1277.5 C 1428.86,1277.34 1431.19,1277.5 1433.5,1278C 1455.32,1284.54 1476.98,1291.54 1498.5,1299C 1511.13,1302.18 1523.96,1304.02 1537,1304.5C 1555.15,1303.11 1573.31,1302.11 1591.5,1301.5C 1600.57,1301.4 1609.57,1302.06 1618.5,1303.5C 1632.57,1306.7 1645.24,1312.87 1656.5,1322C 1669.09,1336.01 1681.09,1350.51 1692.5,1365.5C 1686.91,1389.82 1685.07,1414.48 1687,1439.5C 1689.37,1456.83 1691.53,1474.16 1693.5,1491.5C 1693.62,1500.34 1692.46,1509 1690,1517.5C 1675.55,1561.1 1653.38,1600.1 1623.5,1634.5C 1491.5,1634.5 1359.5,1634.5 1227.5,1634.5C 1210.22,1601.15 1201.22,1565.65 1200.5,1528C 1203.05,1496.36 1206.88,1464.86 1212,1433.5C 1222.76,1392.41 1248.59,1366.24 1289.5,1355C 1326.1,1347.68 1362.77,1340.68 1399.5,1334C 1406.33,1330.83 1412.16,1326.33 1417,1320.5C 1424.01,1307.11 1427.18,1292.78 1426.5,1277.5 Z"/></g>
<g><path style="opacity:1" fill="#fbfcfb" d="M 1735.5,1301.5 C 1753.02,1300.5 1758.85,1308.17 1753,1324.5C 1748.08,1329.2 1742.24,1330.7 1735.5,1329C 1727.13,1323.2 1725.29,1315.7 1730,1306.5C 1731.81,1304.7 1733.65,1303.03 1735.5,1301.5 Z"/></g>
<g><path style="opacity:1" fill="#4f67b0" d="M 253.5,1632.5 C 472.999,1633.5 692.666,1633.83 912.5,1633.5C 912.5,1633.83 912.5,1634.17 912.5,1634.5C 692.167,1634.5 471.833,1634.5 251.5,1634.5C 251.833,1633.5 252.5,1632.83 253.5,1632.5 Z"/></g>
<g><path style="opacity:1" fill="#4a4a4a" d="M 1775.5,1631.5 C 1872,1633.17 1968.66,1634.17 2065.5,1634.5C 1968.5,1634.5 1871.5,1634.5 1774.5,1634.5C 1774.26,1633.21 1774.6,1632.21 1775.5,1631.5 Z"/></g>
</svg>
