<?xml version="1.0" encoding="UTF-8"?>
<!DOCTYPE svg PUBLIC "-//W3C//DTD SVG 1.1//EN" "http://www.w3.org/Graphics/SVG/1.1/DTD/svg11.dtd">
<svg xmlns="http://www.w3.org/2000/svg" version="1.1" width="223px" height="226px" style="shape-rendering:geometricPrecision; text-rendering:geometricPrecision; image-rendering:optimizeQuality; fill-rule:evenodd; clip-rule:evenodd" xmlns:xlink="http://www.w3.org/1999/xlink">
<g><path style="opacity:1" fill="#fdfefe" d="M -0.5,-0.5 C 73.8333,-0.5 148.167,-0.5 222.5,-0.5C 222.5,74.8333 222.5,150.167 222.5,225.5C 148.167,225.5 73.8333,225.5 -0.5,225.5C -0.5,150.167 -0.5,74.8333 -0.5,-0.5 Z"/></g>
<g><path style="opacity:1" fill="#1fadae" d="M 159.5,9.5 C 164.76,13.2552 169.594,17.5886 174,22.5C 176.783,26.9507 179.95,31.1174 183.5,35C 185.034,35.923 186.701,36.423 188.5,36.5C 192.476,35.5576 196.476,35.3909 200.5,36C 203.407,39.1508 206.074,42.4841 208.5,46C 212.327,47.746 215.993,49.746 219.5,52C 214.728,50.9625 210.061,49.2959 205.5,47C 202.5,46.3333 199.5,46.3333 196.5,47C 192.852,50.9786 188.852,54.6453 184.5,58C 180.647,58.5875 176.98,58.2542 173.5,57C 171.4,63.0392 167.733,67.8725 162.5,71.5C 162.167,70.8333 161.833,70.1667 161.5,69.5C 164.51,60.4797 168.843,52.1464 174.5,44.5C 165.425,34.6181 160.425,22.9515 159.5,9.5 Z"/></g>
<g><path style="opacity:1" fill="#d4eaee" d="M 91.5,16.5 C 104.5,14.8513 117.5,15.6846 130.5,19C 135.056,20.566 139.39,22.3993 143.5,24.5C 143.436,25.3652 143.103,26.3652 142.5,27.5C 126.369,19.5945 109.369,16.9278 91.5,19.5C 92.625,18.3478 92.625,17.3478 91.5,16.5 Z"/></g>
<g><path style="opacity:1" fill="#a9ccde" d="M 91.5,16.5 C 92.625,17.3478 92.625,18.3478 91.5,19.5C 81.5741,20.7486 72.2407,23.7486 63.5,28.5C 63.0269,27.0937 62.0269,26.427 60.5,26.5C 70.1127,21.1751 80.446,17.8418 91.5,16.5 Z"/></g>
<g><path style="opacity:1" fill="#8cd0d2" d="M 143.5,24.5 C 149.369,26.5961 154.369,29.9295 158.5,34.5C 157.277,35.6139 155.944,35.7805 154.5,35C 150.976,31.7382 146.976,29.2382 142.5,27.5C 143.103,26.3652 143.436,25.3652 143.5,24.5 Z"/></g>
<g><path style="opacity:1" fill="#1969aa" d="M 92.5,29.5 C 98.5788,28.5915 103.912,30.0915 108.5,34C 113.657,34.4932 117.824,36.6599 121,40.5C 121.839,45.9212 121.506,51.2545 120,56.5C 117.714,64.1492 114.714,64.4825 111,57.5C 110.661,60.036 110.161,62.536 109.5,65C 112.373,68.2109 114.873,71.7109 117,75.5C 118.999,84.159 120.999,92.8257 123,101.5C 124.153,104.47 125.82,107.137 128,109.5C 129.793,113.548 129.793,117.548 128,121.5C 124.568,125.364 121.901,129.698 120,134.5C 119.333,137.833 119.333,141.167 120,144.5C 121.028,146.844 121.694,149.177 122,151.5C 114.271,147.646 106.104,145.313 97.5,144.5C 98.5723,135.137 100.239,125.971 102.5,117C 102.859,112.651 101.859,108.651 99.5,105C 101.376,101.919 102.376,98.5856 102.5,95C 101.925,88.859 101.758,82.6923 102,76.5C 97.8693,73.7075 94.0359,74.2075 90.5,78C 87.5184,78.498 84.5184,78.6646 81.5,78.5C 82.6254,74.9158 84.2921,71.5824 86.5,68.5C 85.0682,64.9867 84.2348,61.32 84,57.5C 82.9586,59.5852 81.4586,61.2519 79.5,62.5C 76.3805,59.9319 74.5471,56.5985 74,52.5C 70.5086,41.3405 74.6752,35.1738 86.5,34C 88.1413,31.837 90.1413,30.337 92.5,29.5 Z"/></g>
<g><path style="opacity:1" fill="#77a7cb" d="M 60.5,26.5 C 62.0269,26.427 63.0269,27.0937 63.5,28.5C 55.6648,32.336 48.6648,37.336 42.5,43.5C 41.8973,42.3652 41.5639,41.3652 41.5,40.5C 47.2471,35.0932 53.5804,30.4265 60.5,26.5 Z"/></g>
<g><path style="opacity:1" fill="#4c84b7" d="M 41.5,40.5 C 41.5639,41.3652 41.8973,42.3652 42.5,43.5C 31.7594,54.3161 24.0927,66.9827 19.5,81.5C 19.573,79.9731 18.9063,78.9731 17.5,78.5C 21.9791,63.5269 29.9791,50.8602 41.5,40.5 Z"/></g>
<g><path style="opacity:1" fill="#1e6bab" d="M 130.5,76.5 C 133.988,77.1434 136.488,79.1434 138,82.5C 138.333,86.8333 138.667,91.1667 139,95.5C 139.543,97.6314 140.376,99.6314 141.5,101.5C 143.119,95.9867 143.952,90.32 144,84.5C 145.015,80.7519 147.182,78.0852 150.5,76.5C 152.425,76.5904 153.592,77.5904 154,79.5C 154.762,85.0004 153.428,90.0004 150,94.5C 149.094,96.7438 148.594,99.0772 148.5,101.5C 148.947,105.045 149.947,108.378 151.5,111.5C 150.621,114.812 150.454,118.145 151,121.5C 155.914,127.161 159.08,133.661 160.5,141C 160.226,149.564 156.226,155.564 148.5,159C 146.833,159.667 145.167,159.667 143.5,159C 137.909,156.803 132.242,154.803 126.5,153C 122.488,146.913 121.654,140.413 124,133.5C 126.667,129.5 129.333,125.5 132,121.5C 132.546,118.145 132.379,114.812 131.5,111.5C 132.759,108.634 133.759,105.634 134.5,102.5C 133.799,97.0959 131.966,92.0959 129,87.5C 128.242,83.6434 128.742,79.9767 130.5,76.5 Z"/></g>
<g><path style="opacity:1" fill="#1aacad" d="M 72.5,77.5 C 76.2026,77.8624 79.2026,79.529 81.5,82.5C 84.3182,81.2174 87.1516,81.2174 90,82.5C 99.2059,74.8524 101.706,76.8524 97.5,88.5C 100.442,94.4065 99.7758,99.9065 95.5,105C 98.4058,108.649 99.7392,112.816 99.5,117.5C 97.0855,126.315 95.4188,135.315 94.5,144.5C 89.0631,144.62 83.7297,145.454 78.5,147C 62.1426,158.665 49.3092,155.499 40,137.5C 35.9603,123.802 39.7937,112.969 51.5,105C 53.5787,104.192 55.5787,104.359 57.5,105.5C 58.8333,106.833 58.8333,108.167 57.5,109.5C 45.7472,116.342 42.5805,126.008 48,138.5C 50.1667,140.667 52.3333,142.833 54.5,145C 56.9141,146.885 59.5808,147.552 62.5,147C 58.9124,136.429 61.7457,127.929 71,121.5C 70.3738,114.971 72.2072,109.304 76.5,104.5C 73.4608,99.6484 72.7941,94.4817 74.5,89C 72.8152,85.362 72.1486,81.5286 72.5,77.5 Z"/></g>
<g><path style="opacity:1" fill="#3574ae" d="M 17.5,78.5 C 18.9063,78.9731 19.573,79.9731 19.5,81.5C 14.2923,102.73 15.959,123.397 24.5,143.5C 24.7583,145.81 24.7583,147.81 24.5,149.5C 12.6297,126.866 10.2963,103.199 17.5,78.5 Z"/></g>
<g><path style="opacity:1" fill="#f6f8fb" d="M 139.5,136.5 C 142.634,138.072 144.3,140.738 144.5,144.5C 144.105,149.182 141.772,150.516 137.5,148.5C 135.846,144.069 136.513,140.069 139.5,136.5 Z"/></g>
<g><path style="opacity:1" fill="#1869aa" d="M 88.5,150.5 C 96.0053,149.988 103.339,150.822 110.5,153C 125.674,159.278 141.007,164.945 156.5,170C 157.791,174.75 155.791,177.416 150.5,178C 144.833,178.667 139.167,178.667 133.5,178C 128.537,176.474 123.537,175.474 118.5,175C 129.221,183.129 141.221,186.129 154.5,184C 169.59,180.303 184.424,175.803 199,170.5C 202.638,171.882 206.472,172.716 210.5,173C 212.028,175.881 211.362,178.214 208.5,180C 192.56,191.139 175.56,200.473 157.5,208C 146.912,210.848 136.245,211.181 125.5,209C 109.022,202.762 93.0224,195.429 77.5,187C 69.6921,183.881 61.6921,181.381 53.5,179.5C 61.1287,164.866 72.7953,155.2 88.5,150.5 Z"/></g>
<g><path style="opacity:1" fill="#5b90be" d="M 24.5,143.5 C 29.5502,153.735 36.3835,162.735 45,170.5C 45.4828,171.448 45.6495,172.448 45.5,173.5C 41.0188,171.541 37.1854,168.541 34,164.5C 30.312,159.782 27.1454,154.782 24.5,149.5C 24.7583,147.81 24.7583,145.81 24.5,143.5 Z"/></g>
</svg>
