<?xml version="1.0" encoding="UTF-8"?>
<!DOCTYPE svg PUBLIC "-//W3C//DTD SVG 1.1//EN" "http://www.w3.org/Graphics/SVG/1.1/DTD/svg11.dtd">
<svg xmlns="http://www.w3.org/2000/svg" version="1.1" width="48px" height="48px" style="shape-rendering:geometricPrecision; text-rendering:geometricPrecision; image-rendering:optimizeQuality; fill-rule:evenodd; clip-rule:evenodd" xmlns:xlink="http://www.w3.org/1999/xlink">
<g><path style="opacity:0.957" fill="#0a9be5" d="M 26.5,42.5 C 26.5,37.8333 26.5,33.1667 26.5,28.5C 28.1667,28.5 29.8333,28.5 31.5,28.5C 31.5,26.8333 31.5,25.1667 31.5,23.5C 29.8333,23.5 28.1667,23.5 26.5,23.5C 26.3379,21.4727 26.5045,19.4727 27,17.5C 28.3561,16.6198 29.8561,16.2865 31.5,16.5C 31.5,15.1667 31.5,13.8333 31.5,12.5C 23.1667,11.5 19.5,15.1667 20.5,23.5C 19.1667,23.5 17.8333,23.5 16.5,23.5C 16.5,25.1667 16.5,26.8333 16.5,28.5C 17.8333,28.5 19.1667,28.5 20.5,28.5C 20.5,33.1667 20.5,37.8333 20.5,42.5C 10.1087,40.441 4.77533,34.1076 4.5,23.5C 5.16667,11.5 11.5,5.16667 23.5,4.5C 35.5,5.16667 41.8333,11.5 42.5,23.5C 42.2247,34.1076 36.8913,40.441 26.5,42.5 Z"/></g>
<g><path style="opacity:1" fill="#f1f9fd" d="M 26.5,42.5 C 24.5,42.5 22.5,42.5 20.5,42.5C 20.5,37.8333 20.5,33.1667 20.5,28.5C 19.1667,28.5 17.8333,28.5 16.5,28.5C 16.5,26.8333 16.5,25.1667 16.5,23.5C 17.8333,23.5 19.1667,23.5 20.5,23.5C 19.5,15.1667 23.1667,11.5 31.5,12.5C 31.5,13.8333 31.5,15.1667 31.5,16.5C 29.8561,16.2865 28.3561,16.6198 27,17.5C 26.5045,19.4727 26.3379,21.4727 26.5,23.5C 28.1667,23.5 29.8333,23.5 31.5,23.5C 31.5,25.1667 31.5,26.8333 31.5,28.5C 29.8333,28.5 28.1667,28.5 26.5,28.5C 26.5,33.1667 26.5,37.8333 26.5,42.5 Z"/></g>
</svg>
