<?xml version="1.0" encoding="UTF-8"?>
<!DOCTYPE svg PUBLIC "-//W3C//DTD SVG 1.1//EN" "http://www.w3.org/Graphics/SVG/1.1/DTD/svg11.dtd">
<svg xmlns="http://www.w3.org/2000/svg" version="1.1" width="48px" height="48px" style="shape-rendering:geometricPrecision; text-rendering:geometricPrecision; image-rendering:optimizeQuality; fill-rule:evenodd; clip-rule:evenodd" xmlns:xlink="http://www.w3.org/1999/xlink">
<g><path style="opacity:0.991" fill="#4c2ef4" d="M 41.5,17.5 C 40.1667,16.5 38.8333,15.5 37.5,14.5C 36.8333,14.5 36.5,14.1667 36.5,13.5C 35.3282,11.461 33.6616,10.1276 31.5,9.5C 23.5919,6.84444 15.5919,6.84444 7.5,9.5C 7.93709,7.92558 8.93709,6.75891 10.5,6C 19.1667,5.33333 27.8333,5.33333 36.5,6C 40.9048,8.57764 42.5715,12.411 41.5,17.5 Z"/></g>
<g><path style="opacity:0.998" fill="#610ae7" d="M 31.5,9.5 C 25.1082,9.24871 18.7748,9.58204 12.5,10.5C 10.1667,11.1667 7.83333,11.8333 5.5,12.5C 5.42702,10.9731 6.09368,9.97306 7.5,9.5C 15.5919,6.84444 23.5919,6.84444 31.5,9.5 Z"/></g>
<g><path style="opacity:1" fill="#f5f0fb" d="M 31.5,9.5 C 33.6616,10.1276 35.3282,11.461 36.5,13.5C 35.6618,13.8417 35.3284,14.5084 35.5,15.5C 34.6836,13.8564 33.3502,12.6897 31.5,12C 25.8333,11.3333 20.1667,11.3333 14.5,12C 13.9558,12.7172 13.2891,13.2172 12.5,13.5C 12.5,12.8333 12.1667,12.5 11.5,12.5C 11.8333,11.8333 12.1667,11.1667 12.5,10.5C 18.7748,9.58204 25.1082,9.24871 31.5,9.5 Z"/></g>
<g><path style="opacity:0.983" fill="#7632b4" d="M 12.5,10.5 C 12.1667,11.1667 11.8333,11.8333 11.5,12.5C 10.5987,13.2905 9.93205,14.2905 9.5,15.5C 8.39514,16.6005 7.06181,17.2671 5.5,17.5C 5.5,15.8333 5.5,14.1667 5.5,12.5C 7.83333,11.8333 10.1667,11.1667 12.5,10.5 Z"/></g>
<g><path style="opacity:1" fill="#8e2da9" d="M 35.5,15.5 C 35.5,16.1667 35.5,16.8333 35.5,17.5C 28.2521,13.6877 20.5855,12.6877 12.5,14.5C 12.5,14.1667 12.5,13.8333 12.5,13.5C 13.2891,13.2172 13.9558,12.7172 14.5,12C 20.1667,11.3333 25.8333,11.3333 31.5,12C 33.3502,12.6897 34.6836,13.8564 35.5,15.5 Z"/></g>
<g><path style="opacity:1" fill="#fcf9fb" d="M 11.5,12.5 C 12.1667,12.5 12.5,12.8333 12.5,13.5C 12.5,13.8333 12.5,14.1667 12.5,14.5C 11.5655,15.5676 11.2322,16.901 11.5,18.5C 11.5,20.1667 11.5,21.8333 11.5,23.5C 11.5,25.1667 11.5,26.8333 11.5,28.5C 11.5,29.5 11.5,30.5 11.5,31.5C 11.6716,32.4916 11.3382,33.1583 10.5,33.5C 10.6716,32.5084 10.3382,31.8417 9.5,31.5C 9.5,29.5 9.5,27.5 9.5,25.5C 9.5,22.1667 9.5,18.8333 9.5,15.5C 9.93205,14.2905 10.5987,13.2905 11.5,12.5 Z"/></g>
<g><path style="opacity:1" fill="#cf2e66" d="M 35.5,17.5 C 35.5,19.1667 35.5,20.8333 35.5,22.5C 33.9557,22.2969 32.6223,21.6302 31.5,20.5C 30.8933,20.6236 30.56,20.9569 30.5,21.5C 27.4598,16.427 23.4598,15.427 18.5,18.5C 16.3382,17.5829 14.0048,17.5829 11.5,18.5C 11.2322,16.901 11.5655,15.5676 12.5,14.5C 20.5855,12.6877 28.2521,13.6877 35.5,17.5 Z"/></g>
<g><path style="opacity:1" fill="#f71352" d="M 18.5,18.5 C 17.3995,19.6049 16.7329,20.9382 16.5,22.5C 14.7839,22.6287 13.1172,22.962 11.5,23.5C 11.5,21.8333 11.5,20.1667 11.5,18.5C 14.0048,17.5829 16.3382,17.5829 18.5,18.5 Z"/></g>
<g><path style="opacity:1" fill="#852aaa" d="M 37.5,14.5 C 38.8333,15.5 40.1667,16.5 41.5,17.5C 41.5,19.5 41.5,21.5 41.5,23.5C 40.1667,22.5 38.8333,21.5 37.5,20.5C 37.5,18.5 37.5,16.5 37.5,14.5 Z"/></g>
<g><path style="opacity:1" fill="#ed1551" d="M 9.5,15.5 C 9.5,18.8333 9.5,22.1667 9.5,25.5C 7.80584,26.5274 6.4725,27.8608 5.5,29.5C 5.5,25.5 5.5,21.5 5.5,17.5C 7.06181,17.2671 8.39514,16.6005 9.5,15.5 Z"/></g>
<g><path style="opacity:1" fill="#fb1748" d="M 35.5,22.5 C 35.5,24.8333 35.5,27.1667 35.5,29.5C 34.2402,27.6329 32.5735,26.2995 30.5,25.5C 30.5,24.1667 30.5,22.8333 30.5,21.5C 30.56,20.9569 30.8933,20.6236 31.5,20.5C 32.6223,21.6302 33.9557,22.2969 35.5,22.5 Z"/></g>
<g><path style="opacity:1" fill="#ff6710" d="M 16.5,22.5 C 16.5,23.5 16.5,24.5 16.5,25.5C 15.0351,26.7368 13.3684,27.7368 11.5,28.5C 11.5,26.8333 11.5,25.1667 11.5,23.5C 13.1172,22.962 14.7839,22.6287 16.5,22.5 Z"/></g>
<g><path style="opacity:1" fill="#fff3ee" d="M 30.5,21.5 C 30.5,22.8333 30.5,24.1667 30.5,25.5C 30.1667,26.1667 29.8333,26.8333 29.5,27.5C 24.2899,31.9893 19.9565,31.3226 16.5,25.5C 16.5,24.5 16.5,23.5 16.5,22.5C 16.7329,20.9382 17.3995,19.6049 18.5,18.5C 23.4598,15.427 27.4598,16.427 30.5,21.5 Z"/></g>
<g><path style="opacity:1" fill="#ff771a" d="M 19.5,21.5 C 22.6296,21.6997 25.6296,22.3664 28.5,23.5C 26.9126,28.648 23.9126,29.648 19.5,26.5C 18.2651,24.6837 18.2651,23.017 19.5,21.5 Z"/></g>
<g><path style="opacity:1" fill="#fd2a50" d="M 28.5,23.5 C 25.6296,22.3664 22.6296,21.6997 19.5,21.5C 21.0285,18.5304 23.3619,17.8637 26.5,19.5C 27.7051,20.5769 28.3718,21.9102 28.5,23.5 Z"/></g>
<g><path style="opacity:0.996" fill="#eb1555" d="M 37.5,20.5 C 38.8333,21.5 40.1667,22.5 41.5,23.5C 41.6657,27.8461 41.499,32.1794 41,36.5C 39.9609,37.7101 38.7942,38.7101 37.5,39.5C 37.7947,37.2646 37.4614,35.2646 36.5,33.5C 37.3726,29.2315 37.7059,24.8982 37.5,20.5 Z"/></g>
<g><path style="opacity:1" fill="#ff6811" d="M 9.5,25.5 C 9.5,27.5 9.5,29.5 9.5,31.5C 7.91917,33.1417 7.2525,35.1417 7.5,37.5C 6.88258,37.3893 6.38258,37.056 6,36.5C 5.50335,34.1902 5.33669,31.8568 5.5,29.5C 6.4725,27.8608 7.80584,26.5274 9.5,25.5 Z"/></g>
<g><path style="opacity:1" fill="#ffc436" d="M 16.5,25.5 C 19.9565,31.3226 24.2899,31.9893 29.5,27.5C 30.3403,29.8525 31.6736,31.8525 33.5,33.5C 31.5615,35.1628 29.2282,35.8294 26.5,35.5C 22.8478,30.7011 18.8478,30.3678 14.5,34.5C 13.2719,33.6935 12.2719,32.6935 11.5,31.5C 11.5,30.5 11.5,29.5 11.5,28.5C 13.3684,27.7368 15.0351,26.7368 16.5,25.5 Z"/></g>
<g><path style="opacity:1" fill="#ff6916" d="M 30.5,25.5 C 32.5735,26.2995 34.2402,27.6329 35.5,29.5C 35.3404,31.153 34.6737,32.4863 33.5,33.5C 31.6736,31.8525 30.3403,29.8525 29.5,27.5C 29.8333,26.8333 30.1667,26.1667 30.5,25.5 Z"/></g>
<g><path style="opacity:1" fill="#fff9f4" d="M 36.5,13.5 C 36.5,14.1667 36.8333,14.5 37.5,14.5C 37.5,16.5 37.5,18.5 37.5,20.5C 37.7059,24.8982 37.3726,29.2315 36.5,33.5C 35.3282,35.539 33.6616,36.8724 31.5,37.5C 30.1667,37.5 28.8333,37.5 27.5,37.5C 22.737,37.7744 18.0704,37.441 13.5,36.5C 12.1667,35.8333 11.1667,34.8333 10.5,33.5C 11.3382,33.1583 11.6716,32.4916 11.5,31.5C 12.2719,32.6935 13.2719,33.6935 14.5,34.5C 18.2984,35.4834 22.2984,35.8168 26.5,35.5C 29.2282,35.8294 31.5615,35.1628 33.5,33.5C 34.6737,32.4863 35.3404,31.153 35.5,29.5C 35.5,27.1667 35.5,24.8333 35.5,22.5C 35.5,20.8333 35.5,19.1667 35.5,17.5C 35.5,16.8333 35.5,16.1667 35.5,15.5C 35.3284,14.5084 35.6618,13.8417 36.5,13.5 Z"/></g>
<g><path style="opacity:1" fill="#ffe189" d="M 26.5,35.5 C 22.2984,35.8168 18.2984,35.4834 14.5,34.5C 18.8478,30.3678 22.8478,30.7011 26.5,35.5 Z"/></g>
<g><path style="opacity:1" fill="#ff7412" d="M 36.5,33.5 C 37.4614,35.2646 37.7947,37.2646 37.5,39.5C 36.0101,41.2798 34.0101,41.9465 31.5,41.5C 31.5,40.1667 31.5,38.8333 31.5,37.5C 33.6616,36.8724 35.3282,35.539 36.5,33.5 Z"/></g>
<g><path style="opacity:0.993" fill="#ffbd27" d="M 9.5,31.5 C 10.3382,31.8417 10.6716,32.5084 10.5,33.5C 11.1667,34.8333 12.1667,35.8333 13.5,36.5C 13.5,38.1667 13.5,39.8333 13.5,41.5C 10.6627,41.3155 8.66268,39.9822 7.5,37.5C 7.2525,35.1417 7.91917,33.1417 9.5,31.5 Z"/></g>
<g><path style="opacity:1" fill="#ffe8a5" d="M 13.5,36.5 C 18.0704,37.441 22.737,37.7744 27.5,37.5C 27.5,38.8333 27.5,40.1667 27.5,41.5C 22.8333,41.5 18.1667,41.5 13.5,41.5C 13.5,39.8333 13.5,38.1667 13.5,36.5 Z"/></g>
<g><path style="opacity:1" fill="#ffc82a" d="M 27.5,37.5 C 28.8333,37.5 30.1667,37.5 31.5,37.5C 31.5,38.8333 31.5,40.1667 31.5,41.5C 30.1667,41.5 28.8333,41.5 27.5,41.5C 27.5,40.1667 27.5,38.8333 27.5,37.5 Z"/></g>
</svg>
