<?xml version="1.0" encoding="UTF-8"?>
<!DOCTYPE svg PUBLIC "-//W3C//DTD SVG 1.1//EN" "http://www.w3.org/Graphics/SVG/1.1/DTD/svg11.dtd">
<svg xmlns="http://www.w3.org/2000/svg" version="1.1" width="48px" height="48px" style="shape-rendering:geometricPrecision; text-rendering:geometricPrecision; image-rendering:optimizeQuality; fill-rule:evenodd; clip-rule:evenodd" xmlns:xlink="http://www.w3.org/1999/xlink">
<g><path style="opacity:0.984" fill="#036dc3" d="M 42.5,16.5 C 41.1667,17.1667 39.8333,17.8333 38.5,18.5C 38.5,17.1667 38.5,15.8333 38.5,14.5C 28.5,14.5 18.5,14.5 8.5,14.5C 8.5,15.8333 8.5,17.1667 8.5,18.5C 7.16667,17.8333 5.83333,17.1667 4.5,16.5C 4.56138,14.4078 5.56138,12.9078 7.5,12C 12.5107,8.47262 17.844,5.63929 23.5,3.5C 29.156,5.63929 34.4893,8.47262 39.5,12C 41.4386,12.9078 42.4386,14.4078 42.5,16.5 Z"/></g>
<g><path style="opacity:1" fill="#f5f6f6" d="M 38.5,18.5 C 33.7015,21.737 28.7015,24.737 23.5,27.5C 21.9505,26.5592 20.2838,25.8925 18.5,25.5C 17.3406,23.7497 15.674,22.7497 13.5,22.5C 12.0158,20.9263 10.3492,19.593 8.5,18.5C 8.5,17.1667 8.5,15.8333 8.5,14.5C 18.5,14.5 28.5,14.5 38.5,14.5C 38.5,15.8333 38.5,17.1667 38.5,18.5 Z"/></g>
<g><path style="opacity:1" fill="#35bfef" d="M 42.5,16.5 C 42.8254,24.3516 42.492,32.0182 41.5,39.5C 35.772,35.1077 29.772,31.1077 23.5,27.5C 28.7015,24.737 33.7015,21.737 38.5,18.5C 39.8333,17.8333 41.1667,17.1667 42.5,16.5 Z"/></g>
<g><path style="opacity:1" fill="#28abe8" d="M 4.5,16.5 C 5.83333,17.1667 7.16667,17.8333 8.5,18.5C 10.3492,19.593 12.0158,20.9263 13.5,22.5C 10.2782,27.2615 7.27817,32.2615 4.5,37.5C 4.5,30.5 4.5,23.5 4.5,16.5 Z"/></g>
<g><path style="opacity:0.999" fill="#23a6e6" d="M 13.5,22.5 C 15.674,22.7497 17.3406,23.7497 18.5,25.5C 15.6589,29.8489 13.3255,34.5156 11.5,39.5C 8.61221,40.0102 6.27887,39.3435 4.5,37.5C 7.27817,32.2615 10.2782,27.2615 13.5,22.5 Z"/></g>
<g><path style="opacity:1" fill="#1b9be1" d="M 18.5,25.5 C 20.2838,25.8925 21.9505,26.5592 23.5,27.5C 29.772,31.1077 35.772,35.1077 41.5,39.5C 31.5,39.5 21.5,39.5 11.5,39.5C 13.3255,34.5156 15.6589,29.8489 18.5,25.5 Z"/></g>
</svg>
