<?xml version="1.0" encoding="UTF-8"?>
<!DOCTYPE svg PUBLIC "-//W3C//DTD SVG 1.1//EN" "http://www.w3.org/Graphics/SVG/1.1/DTD/svg11.dtd">
<svg xmlns="http://www.w3.org/2000/svg" version="1.1" width="48px" height="48px" style="shape-rendering:geometricPrecision; text-rendering:geometricPrecision; image-rendering:optimizeQuality; fill-rule:evenodd; clip-rule:evenodd" xmlns:xlink="http://www.w3.org/1999/xlink">
<g><path style="opacity:0.953" fill="#9ffcff" d="M 23.5,3.5 C 17.1667,10.5 10.5,17.1667 3.5,23.5C 2.5,9.16667 9.16667,2.5 23.5,3.5 Z"/></g>
<g><path style="opacity:0.956" fill="#98f8ff" d="M 23.5,3.5 C 25.153,3.6596 26.4863,4.32627 27.5,5.5C 19.8333,12.5 12.5,19.8333 5.5,27.5C 4.32627,26.4863 3.6596,25.153 3.5,23.5C 10.5,17.1667 17.1667,10.5 23.5,3.5 Z"/></g>
<g><path style="opacity:0.991" fill="#92f5ff" d="M 27.5,5.5 C 29.0269,5.42702 30.0269,6.09368 30.5,7.5C 22.5,14.8333 14.8333,22.5 7.5,30.5C 6.09368,30.0269 5.42702,29.0269 5.5,27.5C 12.5,19.8333 19.8333,12.5 27.5,5.5 Z"/></g>
<g><path style="opacity:0.995" fill="#8af0ff" d="M 30.5,7.5 C 31.5,7.83333 32.1667,8.5 32.5,9.5C 32.6495,10.552 32.4828,11.552 32,12.5C 24.9641,19.3685 18.1307,26.3685 11.5,33.5C 9.59565,33.2624 8.26231,32.2624 7.5,30.5C 14.8333,22.5 22.5,14.8333 30.5,7.5 Z"/></g>
<g><path style="opacity:0.958" fill="#7ee9ff" d="M 32.5,9.5 C 34.2927,11.4261 35.2927,13.7594 35.5,16.5C 28.7751,22.2228 22.7751,28.5561 17.5,35.5C 15.1016,35.7406 13.1016,35.0739 11.5,33.5C 18.1307,26.3685 24.9641,19.3685 32,12.5C 32.4828,11.552 32.6495,10.552 32.5,9.5 Z"/></g>
<g><path style="opacity:0.993" fill="#71e2ff" d="M 35.5,16.5 C 35.5,19.1667 35.5,21.8333 35.5,24.5C 30.8333,27.1667 27.1667,30.8333 24.5,35.5C 22.1667,35.5 19.8333,35.5 17.5,35.5C 22.7751,28.5561 28.7751,22.2228 35.5,16.5 Z"/></g>
<g><path style="opacity:0.911" fill="#65d9fd" d="M 35.5,24.5 C 34.8333,25.8333 34.1667,27.1667 33.5,28.5C 31.5,29.8333 29.8333,31.5 28.5,33.5C 27.1667,34.1667 25.8333,34.8333 24.5,35.5C 27.1667,30.8333 30.8333,27.1667 35.5,24.5 Z"/></g>
<g><path style="opacity:1" fill="#28a7d2" d="M 33.5,28.5 C 33.5,28.8333 33.5,29.1667 33.5,29.5C 32.5,31.1667 31.1667,32.5 29.5,33.5C 29.1667,33.5 28.8333,33.5 28.5,33.5C 29.8333,31.5 31.5,29.8333 33.5,28.5 Z"/></g>
<g><path style="opacity:0.795" fill="#33beee" d="M 33.5,29.5 C 34.5,29.8333 35.1667,30.5 35.5,31.5C 34.5,33.1667 33.1667,34.5 31.5,35.5C 30.5,35.1667 29.8333,34.5 29.5,33.5C 31.1667,32.5 32.5,31.1667 33.5,29.5 Z"/></g>
<g><path style="opacity:0.828" fill="#199ae2" d="M 35.5,31.5 C 39.4862,33.9509 41.9862,37.2843 43,41.5C 41.8668,43.2112 40.3668,43.7112 38.5,43C 35.9614,40.6303 33.6281,38.1303 31.5,35.5C 33.1667,34.5 34.5,33.1667 35.5,31.5 Z"/></g>
</svg>
